<svg xmlns="http://www.w3.org/2000/svg" xmlns:xlink="http://www.w3.org/1999/xlink" width="500" zoomAndPan="magnify" viewBox="0 0 375 374.999991" height="500" preserveAspectRatio="xMidYMid meet" version="1.0"><defs><clipPath id="aef37c50b2"><path d="M 13 13 L 355.75 13 L 355.75 355.75 L 13 355.75 Z M 13 13 " clip-rule="nonzero"/></clipPath></defs><path fill="#171539" d="M 234.957031 173.769531 C 234.957031 175.773438 234.859375 177.769531 234.664062 179.765625 C 234.46875 181.761719 234.171875 183.738281 233.78125 185.707031 C 233.390625 187.671875 232.90625 189.613281 232.324219 191.53125 C 231.742188 193.449219 231.066406 195.332031 230.300781 197.183594 C 229.535156 199.035156 228.675781 200.84375 227.734375 202.613281 C 226.789062 204.378906 225.757812 206.097656 224.644531 207.761719 C 223.53125 209.429688 222.339844 211.039062 221.070312 212.585938 C 219.796875 214.136719 218.453125 215.617188 217.035156 217.035156 C 215.617188 218.453125 214.136719 219.796875 212.585938 221.070312 C 211.039062 222.339844 209.429688 223.53125 207.761719 224.644531 C 206.097656 225.757812 204.378906 226.789062 202.613281 227.734375 C 200.84375 228.675781 199.035156 229.535156 197.183594 230.300781 C 195.332031 231.066406 193.449219 231.742188 191.53125 232.324219 C 189.613281 232.90625 187.671875 233.390625 185.707031 233.78125 C 183.738281 234.171875 181.761719 234.46875 179.765625 234.664062 C 177.769531 234.859375 175.773438 234.957031 173.769531 234.957031 C 171.765625 234.957031 169.765625 234.859375 167.769531 234.664062 C 165.777344 234.46875 163.796875 234.171875 161.832031 233.78125 C 159.863281 233.390625 157.921875 232.90625 156.003906 232.324219 C 154.085938 231.742188 152.203125 231.066406 150.351562 230.300781 C 148.5 229.535156 146.691406 228.675781 144.921875 227.734375 C 143.15625 226.789062 141.4375 225.757812 139.773438 224.644531 C 138.105469 223.53125 136.5 222.339844 134.949219 221.070312 C 133.398438 219.796875 131.917969 218.453125 130.5 217.035156 C 129.082031 215.617188 127.738281 214.136719 126.46875 212.585938 C 125.195312 211.039062 124.003906 209.429688 122.890625 207.761719 C 121.777344 206.097656 120.746094 204.378906 119.804688 202.613281 C 118.859375 200.84375 118.003906 199.035156 117.234375 197.183594 C 116.46875 195.332031 115.792969 193.449219 115.210938 191.53125 C 114.628906 189.613281 114.144531 187.671875 113.753906 185.707031 C 113.363281 183.738281 113.070312 181.761719 112.871094 179.765625 C 112.675781 177.769531 112.578125 175.773438 112.578125 173.769531 C 112.578125 171.765625 112.675781 169.765625 112.871094 167.769531 C 113.070312 165.777344 113.363281 163.796875 113.753906 161.832031 C 114.144531 159.863281 114.628906 157.921875 115.210938 156.003906 C 115.792969 154.085938 116.46875 152.203125 117.234375 150.351562 C 118.003906 148.5 118.859375 146.691406 119.804688 144.921875 C 120.746094 143.15625 121.777344 141.4375 122.890625 139.773438 C 124.003906 138.105469 125.195312 136.5 126.46875 134.949219 C 127.738281 133.398438 129.082031 131.917969 130.5 130.5 C 131.917969 129.082031 133.398438 127.738281 134.949219 126.46875 C 136.5 125.195312 138.105469 124.003906 139.773438 122.890625 C 141.4375 121.777344 143.15625 120.746094 144.921875 119.804688 C 146.691406 118.859375 148.5 118.003906 150.351562 117.234375 C 152.203125 116.46875 154.085938 115.792969 156.003906 115.210938 C 157.921875 114.628906 159.863281 114.144531 161.832031 113.753906 C 163.796875 113.363281 165.777344 113.070312 167.769531 112.871094 C 169.765625 112.675781 171.765625 112.578125 173.769531 112.578125 C 175.773438 112.578125 177.769531 112.675781 179.765625 112.871094 C 181.761719 113.070312 183.738281 113.363281 185.707031 113.753906 C 187.671875 114.144531 189.613281 114.628906 191.53125 115.210938 C 193.449219 115.792969 195.332031 116.46875 197.183594 117.234375 C 199.035156 118.003906 200.84375 118.859375 202.613281 119.804688 C 204.378906 120.746094 206.097656 121.777344 207.761719 122.890625 C 209.429688 124.003906 211.039062 125.195312 212.585938 126.46875 C 214.136719 127.738281 215.617188 129.082031 217.035156 130.5 C 218.453125 131.917969 219.796875 133.398438 221.070312 134.949219 C 222.339844 136.5 223.53125 138.105469 224.644531 139.773438 C 225.757812 141.4375 226.789062 143.15625 227.734375 144.921875 C 228.675781 146.691406 229.535156 148.5 230.300781 150.351562 C 231.066406 152.203125 231.742188 154.085938 232.324219 156.003906 C 232.90625 157.921875 233.390625 159.863281 233.78125 161.832031 C 234.171875 163.796875 234.46875 165.777344 234.664062 167.769531 C 234.859375 169.765625 234.957031 171.765625 234.957031 173.769531 Z M 234.957031 173.769531 " fill-opacity="1" fill-rule="nonzero"/><g clip-path="url(#aef37c50b2)"><path fill="#171539" d="M 184.375 13 C 89.726562 13 13 89.726562 13 184.375 C 13 279.023438 89.726562 355.75 184.375 355.75 C 279.023438 355.75 355.75 279.023438 355.75 184.375 C 355.75 89.726562 279.023438 13 184.375 13 Z M 284.027344 284.027344 C 277.65625 290.398438 267.324219 290.398438 260.949219 284.027344 L 227.566406 250.640625 C 212.371094 261.296875 193.875 267.5625 173.914062 267.59375 C 122.796875 267.667969 80.78125 226.425781 79.957031 175.320312 C 79.097656 122.273438 122.273438 79.097656 175.320312 79.953125 C 226.425781 80.78125 267.667969 122.796875 267.59375 173.910156 C 267.5625 193.871094 261.296875 212.367188 250.640625 227.566406 L 284.027344 260.949219 C 290.398438 267.324219 290.398438 277.65625 284.027344 284.027344 Z M 284.027344 284.027344 " fill-opacity="1" fill-rule="nonzero"/></g></svg>