<svg xmlns="http://www.w3.org/2000/svg" xmlns:xlink="http://www.w3.org/1999/xlink" width="500" zoomAndPan="magnify" viewBox="0 0 375 374.999991" height="500" preserveAspectRatio="xMidYMid meet" version="1.0"><defs><clipPath id="dcb14b5960"><path d="M 87 81 L 352.214844 81 L 352.214844 235 L 87 235 Z M 87 81 " clip-rule="nonzero"/></clipPath><clipPath id="0bae0ef71c"><path d="M 22.964844 103 L 289 103 L 289 257.625 L 22.964844 257.625 Z M 22.964844 103 " clip-rule="nonzero"/></clipPath></defs><g clip-path="url(#dcb14b5960)"><path fill="#171539" d="M 184.613281 81.363281 C 182.683594 81.363281 180.753906 81.457031 178.832031 81.644531 C 176.910156 81.835938 175 82.117188 173.105469 82.496094 C 171.214844 82.871094 169.339844 83.339844 167.492188 83.898438 C 165.644531 84.460938 163.828125 85.109375 162.042969 85.847656 C 160.257812 86.585938 158.515625 87.410156 156.8125 88.320312 C 155.109375 89.230469 153.453125 90.21875 151.847656 91.292969 C 150.242188 92.363281 148.691406 93.511719 147.199219 94.734375 C 145.703125 95.960938 144.273438 97.253906 142.910156 98.617188 C 141.542969 99.984375 140.246094 101.410156 139.023438 102.902344 C 137.796875 104.394531 136.648438 105.941406 135.574219 107.546875 C 134.5 109.148438 133.511719 110.804688 132.597656 112.503906 C 131.6875 114.207031 130.863281 115.949219 130.125 117.730469 C 129.386719 119.511719 128.734375 121.328125 128.175781 123.175781 C 127.613281 125.019531 127.144531 126.890625 126.769531 128.78125 C 126.390625 130.675781 126.109375 132.582031 125.917969 134.5 C 125.730469 136.421875 125.636719 138.347656 125.636719 140.277344 C 125.648438 142.457031 125.78125 144.628906 126.039062 146.796875 C 103.792969 150.785156 87.105469 168.734375 87.105469 190.398438 C 87.105469 215.015625 108.644531 234.832031 135.398438 234.832031 L 307.726562 234.832031 C 332.371094 234.832031 352.207031 216.410156 352.207031 193.53125 C 352.207031 170.792969 332.613281 152.46875 308.183594 152.242188 C 307.992188 150.71875 307.730469 149.207031 307.398438 147.703125 C 307.070312 146.203125 306.671875 144.722656 306.207031 143.253906 C 305.742188 141.789062 305.214844 140.351562 304.621094 138.933594 C 304.023438 137.515625 303.367188 136.128906 302.648438 134.769531 C 301.925781 133.414062 301.148438 132.089844 300.308594 130.800781 C 299.46875 129.515625 298.570312 128.269531 297.617188 127.0625 C 296.664062 125.855469 295.660156 124.695312 294.601562 123.578125 C 293.546875 122.460938 292.4375 121.398438 291.285156 120.378906 C 290.132812 119.363281 288.933594 118.402344 287.691406 117.496094 C 286.453125 116.585938 285.171875 115.738281 283.855469 114.945312 C 282.535156 114.152344 281.183594 113.421875 279.800781 112.75 C 278.417969 112.078125 277.003906 111.472656 275.566406 110.929688 C 274.128906 110.386719 272.667969 109.910156 271.183594 109.5 C 269.703125 109.085938 268.203125 108.742188 266.691406 108.46875 C 265.179688 108.191406 263.65625 107.984375 262.125 107.847656 C 260.589844 107.707031 259.054688 107.636719 257.519531 107.636719 C 250.171875 107.648438 243.152344 109.171875 236.464844 112.207031 C 235.207031 109.886719 233.796875 107.660156 232.238281 105.527344 C 230.679688 103.394531 228.984375 101.375 227.152344 99.46875 C 225.320312 97.566406 223.371094 95.792969 221.300781 94.148438 C 219.230469 92.507812 217.058594 91.007812 214.789062 89.660156 C 212.515625 88.308594 210.164062 87.113281 207.734375 86.078125 C 205.300781 85.042969 202.8125 84.175781 200.261719 83.472656 C 197.714844 82.773438 195.128906 82.246094 192.507812 81.894531 C 189.890625 81.539062 187.257812 81.363281 184.613281 81.363281 Z M 184.613281 81.363281 " fill-opacity="1" fill-rule="nonzero"/></g><g clip-path="url(#0bae0ef71c)"><path fill="#e1dddb" d="M 120.496094 103.53125 C 118.5625 103.53125 116.636719 103.628906 114.714844 103.816406 C 112.792969 104.003906 110.882812 104.289062 108.988281 104.664062 C 107.09375 105.042969 105.222656 105.507812 103.375 106.070312 C 101.527344 106.628906 99.710938 107.277344 97.925781 108.015625 C 96.140625 108.757812 94.398438 109.578125 92.691406 110.488281 C 90.988281 111.398438 89.335938 112.390625 87.730469 113.460938 C 86.121094 114.535156 84.574219 115.683594 83.078125 116.90625 C 81.585938 118.128906 80.15625 119.425781 78.792969 120.789062 C 77.425781 122.152344 76.128906 123.582031 74.90625 125.074219 C 73.679688 126.5625 72.53125 128.113281 71.457031 129.714844 C 70.382812 131.320312 69.390625 132.972656 68.480469 134.675781 C 67.570312 136.375 66.746094 138.117188 66.007812 139.902344 C 65.265625 141.683594 64.617188 143.5 64.058594 145.34375 C 63.496094 147.191406 63.027344 149.058594 62.652344 150.953125 C 62.273438 152.84375 61.992188 154.75 61.800781 156.671875 C 61.613281 158.59375 61.515625 160.515625 61.515625 162.445312 C 61.53125 164.628906 61.664062 166.800781 61.917969 168.96875 C 39.675781 172.957031 22.988281 190.902344 22.988281 212.570312 C 22.988281 237.1875 44.527344 257.003906 71.28125 257.003906 L 243.609375 257.003906 C 268.25 257.003906 288.089844 238.582031 288.089844 215.703125 C 288.089844 192.964844 268.496094 174.640625 244.066406 174.414062 C 243.875 172.886719 243.613281 171.375 243.28125 169.875 C 242.953125 168.375 242.554688 166.890625 242.089844 165.425781 C 241.625 163.960938 241.097656 162.519531 240.5 161.101562 C 239.90625 159.6875 239.25 158.296875 238.527344 156.941406 C 237.808594 155.582031 237.027344 154.261719 236.1875 152.972656 C 235.347656 151.683594 234.453125 150.4375 233.5 149.230469 C 232.546875 148.027344 231.542969 146.863281 230.484375 145.75 C 229.425781 144.632812 228.320312 143.566406 227.167969 142.550781 C 226.011719 141.535156 224.816406 140.574219 223.574219 139.664062 C 222.332031 138.757812 221.054688 137.90625 219.734375 137.113281 C 218.417969 136.324219 217.066406 135.589844 215.683594 134.921875 C 214.296875 134.25 212.886719 133.644531 211.449219 133.101562 C 210.007812 132.558594 208.546875 132.082031 207.066406 131.667969 C 205.585938 131.257812 204.085938 130.914062 202.574219 130.636719 C 201.058594 130.363281 199.539062 130.15625 198.003906 130.015625 C 196.472656 129.878906 194.9375 129.808594 193.398438 129.808594 C 186.054688 129.820312 179.035156 131.34375 172.347656 134.378906 C 171.089844 132.054688 169.679688 129.828125 168.121094 127.695312 C 166.558594 125.5625 164.863281 123.546875 163.035156 121.640625 C 161.203125 119.734375 159.253906 117.960938 157.183594 116.320312 C 155.113281 114.675781 152.941406 113.179688 150.671875 111.828125 C 148.398438 110.476562 146.046875 109.285156 143.617188 108.25 C 141.183594 107.214844 138.691406 106.34375 136.144531 105.644531 C 133.59375 104.945312 131.011719 104.417969 128.390625 104.0625 C 125.769531 103.710938 123.140625 103.53125 120.496094 103.53125 Z M 120.496094 103.53125 " fill-opacity="1" fill-rule="nonzero"/></g></svg>