<svg xmlns="http://www.w3.org/2000/svg" xmlns:xlink="http://www.w3.org/1999/xlink" width="500" zoomAndPan="magnify" viewBox="0 0 375 374.999991" height="500" preserveAspectRatio="xMidYMid meet" version="1.0"><defs><clipPath id="7415168aa4"><path d="M 28.640625 20.574219 L 346.640625 20.574219 L 346.640625 337.824219 L 28.640625 337.824219 Z M 28.640625 20.574219 " clip-rule="nonzero"/></clipPath></defs><path fill="#c9974e" d="M 187.648438 101.859375 C 227.464844 101.859375 259.789062 134.675781 259.789062 175.101562 C 259.789062 215.527344 227.464844 248.351562 187.648438 248.351562 C 147.832031 248.351562 115.507812 215.527344 115.507812 175.101562 C 115.507812 134.675781 147.832031 101.859375 187.648438 101.859375 Z M 187.648438 101.859375 " fill-opacity="1" fill-rule="evenodd"/><g clip-path="url(#7415168aa4)"><path fill="#c9974e" d="M 198.847656 260.761719 L 207.492188 334.578125 C 207.539062 334.960938 207.507812 335.339844 207.402344 335.710938 C 207.296875 336.085938 207.125 336.421875 206.886719 336.726562 C 206.644531 337.027344 206.359375 337.273438 206.019531 337.464844 C 205.683594 337.652344 205.324219 337.769531 204.9375 337.816406 L 204.644531 337.816406 C 204.285156 337.820312 203.9375 337.761719 203.597656 337.636719 C 203.257812 337.511719 202.953125 337.332031 202.683594 337.09375 C 202.414062 336.855469 202.195312 336.578125 202.027344 336.257812 C 201.859375 335.941406 201.753906 335.601562 201.710938 335.246094 L 193.050781 261.335938 C 195 261.21875 196.921875 261.035156 198.847656 260.785156 Z M 173.753906 260.367188 C 175.65625 260.679688 177.582031 260.921875 179.527344 261.105469 L 170.859375 335.261719 L 165.074219 334.578125 Z M 217.695312 256.101562 L 242.9375 325.476562 C 243.070312 325.835938 243.128906 326.210938 243.113281 326.597656 C 243.097656 326.984375 243.007812 327.351562 242.84375 327.703125 C 242.683594 328.054688 242.460938 328.359375 242.175781 328.621094 C 241.890625 328.882812 241.566406 329.082031 241.203125 329.214844 C 240.925781 329.3125 240.636719 329.367188 240.34375 329.382812 L 240.195312 329.382812 C 239.585938 329.382812 239.03125 329.207031 238.53125 328.855469 C 238.03125 328.507812 237.675781 328.046875 237.464844 327.472656 L 212.136719 257.945312 C 214.003906 257.394531 215.851562 256.777344 217.664062 256.101562 Z M 155.191406 255.144531 C 156.988281 255.871094 158.804688 256.542969 160.664062 257.15625 L 135.082031 327.449219 L 129.609375 325.453125 Z M 235.117188 247.238281 L 275.371094 308.398438 L 270.492188 311.65625 L 230.148438 250.320312 C 231.84375 249.359375 233.5 248.34375 235.117188 247.277344 Z M 138.269531 245.953125 C 139.867188 247.058594 141.492188 248.121094 143.15625 249.121094 L 102.0625 311.65625 L 97.191406 308.457031 L 138.269531 245.992188 Z M 250.226562 234.597656 L 302.964844 284.359375 C 303.394531 284.761719 303.675781 285.253906 303.808594 285.828125 C 303.941406 286.402344 303.902344 286.964844 303.691406 287.515625 C 303.484375 288.066406 303.136719 288.511719 302.65625 288.855469 C 302.175781 289.195312 301.640625 289.375 301.050781 289.390625 L 300.914062 289.390625 C 300.167969 289.378906 299.519531 289.121094 298.96875 288.617188 L 246.070312 238.699219 C 247.507812 237.382812 248.890625 236.019531 250.226562 234.613281 Z M 123.78125 233.21875 C 125.089844 234.660156 126.445312 236.042969 127.84375 237.390625 L 73.585938 288.625 L 69.589844 284.382812 L 123.773438 233.242188 Z M 262.195312 218.757812 L 324.289062 254.609375 C 324.558594 254.765625 324.796875 254.960938 325 255.191406 C 325.207031 255.425781 325.371094 255.683594 325.496094 255.96875 C 325.621094 256.253906 325.695312 256.550781 325.722656 256.863281 C 325.75 257.171875 325.730469 257.476562 325.660156 257.78125 C 325.589844 258.082031 325.472656 258.367188 325.3125 258.632812 C 325.152344 258.898438 324.953125 259.132812 324.71875 259.335938 C 324.480469 259.539062 324.21875 259.699219 323.929688 259.816406 C 323.644531 259.933594 323.34375 260.003906 323.035156 260.027344 L 322.894531 260.027344 C 322.339844 260.050781 321.824219 259.921875 321.347656 259.640625 L 259.035156 223.664062 C 260.136719 222.0625 261.171875 220.414062 262.132812 218.742188 Z M 112.410156 217.566406 C 113.371094 219.257812 114.382812 220.914062 115.453125 222.535156 L 51.207031 259.65625 C 50.78125 259.902344 50.320312 260.03125 49.828125 260.042969 L 49.691406 260.042969 C 49.375 260.035156 49.066406 259.976562 48.769531 259.867188 C 48.472656 259.761719 48.199219 259.609375 47.953125 259.410156 C 47.707031 259.214844 47.496094 258.984375 47.324219 258.71875 C 47.152344 258.453125 47.023438 258.167969 46.945312 257.863281 C 46.867188 257.554688 46.839844 257.246094 46.859375 256.929688 C 46.882812 256.613281 46.953125 256.308594 47.074219 256.019531 C 47.195312 255.726562 47.359375 255.460938 47.566406 255.222656 C 47.777344 254.984375 48.015625 254.785156 48.289062 254.625 L 112.441406 217.582031 Z M 270.316406 200.394531 L 338.207031 220.722656 C 338.535156 220.820312 338.835938 220.972656 339.113281 221.175781 C 339.386719 221.378906 339.621094 221.625 339.808594 221.910156 C 340 222.195312 340.132812 222.503906 340.210938 222.839844 C 340.292969 223.171875 340.3125 223.507812 340.273438 223.847656 C 340.234375 224.191406 340.136719 224.511719 339.984375 224.820312 C 339.828125 225.125 339.628906 225.398438 339.378906 225.632812 C 339.128906 225.867188 338.847656 226.054688 338.535156 226.1875 C 338.21875 226.324219 337.890625 226.402344 337.546875 226.421875 L 337.402344 226.421875 C 337.105469 226.429688 336.816406 226.386719 336.535156 226.296875 L 268.417969 205.898438 C 269.105469 204.09375 269.742188 202.253906 270.316406 200.394531 Z M 104.832031 199.621094 C 105.382812 201.492188 106 203.335938 106.675781 205.148438 L 36.050781 226.296875 C 35.816406 226.371094 35.578125 226.414062 35.332031 226.421875 L 35.183594 226.421875 C 34.835938 226.414062 34.503906 226.347656 34.179688 226.21875 C 33.859375 226.09375 33.566406 225.914062 33.308594 225.683594 C 33.050781 225.453125 32.839844 225.183594 32.675781 224.878906 C 32.515625 224.570312 32.410156 224.246094 32.363281 223.902344 C 32.316406 223.558594 32.332031 223.21875 32.40625 222.878906 C 32.480469 222.542969 32.613281 222.226562 32.800781 221.9375 C 32.988281 221.644531 33.21875 221.394531 33.496094 221.1875 C 33.773438 220.976562 34.078125 220.824219 34.410156 220.722656 L 104.847656 199.636719 Z M 273.921875 180.453125 L 343.894531 184.523438 C 344.261719 184.554688 344.613281 184.648438 344.945312 184.808594 C 345.273438 184.972656 345.566406 185.1875 345.8125 185.460938 C 346.0625 185.730469 346.253906 186.039062 346.386719 186.382812 C 346.519531 186.726562 346.585938 187.085938 346.582031 187.453125 C 346.578125 187.820312 346.511719 188.175781 346.371094 188.519531 C 346.234375 188.863281 346.039062 189.167969 345.789062 189.433594 C 345.535156 189.703125 345.242188 189.917969 344.910156 190.074219 C 344.574219 190.230469 344.222656 190.320312 343.855469 190.34375 L 343.5625 190.34375 L 273.324219 186.242188 C 273.574219 184.328125 273.757812 182.394531 273.882812 180.445312 Z M 101.433594 180.289062 C 101.558594 182.238281 101.734375 184.160156 101.984375 186.09375 L 29.03125 190.351562 L 28.691406 184.539062 L 101.394531 180.304688 Z M 102.457031 160.539062 C 102.136719 162.445312 101.875 164.371094 101.683594 166.316406 L 30.476562 153.726562 L 30.632812 153.726562 C 30.730469 153.734375 30.828125 153.734375 30.925781 153.726562 L 31.066406 153.726562 C 31.425781 153.71875 31.773438 153.644531 32.105469 153.503906 C 32.4375 153.363281 32.734375 153.171875 32.992188 152.921875 C 33.253906 152.671875 33.460938 152.386719 33.613281 152.058594 C 33.765625 151.734375 33.855469 151.390625 33.882812 151.03125 C 33.910156 150.671875 33.871094 150.320312 33.765625 149.976562 C 33.664062 149.632812 33.5 149.316406 33.28125 149.03125 C 33.058594 148.75 32.792969 148.511719 32.484375 148.328125 C 32.175781 148.140625 31.847656 148.015625 31.492188 147.953125 Z M 272.746094 160.066406 L 341.046875 148.03125 L 342.0625 153.757812 L 273.550781 165.84375 C 273.347656 163.898438 273.089844 161.972656 272.777344 160.066406 Z M 105.976562 146.808594 L 40.300781 118.488281 C 39.945312 118.335938 39.632812 118.117188 39.367188 117.839844 C 39.097656 117.5625 38.890625 117.242188 38.75 116.882812 C 38.609375 116.523438 38.539062 116.152344 38.546875 115.765625 C 38.554688 115.378906 38.632812 115.007812 38.785156 114.652344 C 38.941406 114.296875 39.15625 113.984375 39.433594 113.71875 C 39.714844 113.449219 40.03125 113.242188 40.390625 113.101562 C 40.75 112.960938 41.125 112.890625 41.511719 112.898438 C 41.898438 112.90625 42.269531 112.984375 42.621094 113.140625 L 108.066406 141.339844 C 107.308594 143.132812 106.613281 144.9375 105.976562 146.761719 Z M 266.792969 140.375 L 329.90625 113.140625 L 332.230469 118.488281 L 268.953125 145.777344 C 268.296875 143.949219 267.578125 142.144531 266.792969 140.359375 Z M 118.0625 123.851562 C 116.910156 125.402344 115.8125 127.003906 114.761719 128.660156 L 58.058594 86.4375 L 61.53125 81.792969 L 118.039062 123.875 Z M 256.257812 122.542969 L 311.023438 81.769531 L 314.503906 86.414062 L 259.640625 127.257812 C 258.566406 125.640625 257.441406 124.058594 256.257812 122.523438 Z M 131.960938 109.003906 C 130.476562 110.257812 129.027344 111.566406 127.636719 112.875 L 82.6875 59.34375 L 87.144531 55.59375 L 131.960938 109.011719 Z M 241.714844 107.671875 L 285.402344 55.59375 L 289.859375 59.34375 L 246.125 111.472656 C 244.691406 110.160156 243.21875 108.890625 241.714844 107.671875 Z M 149.085938 97.726562 C 147.34375 98.59375 145.636719 99.519531 143.960938 100.503906 L 112.90625 38.65625 C 113.160156 39.160156 112 36.335938 113.878906 35.203125 C 116.613281 33.578125 118.472656 36.753906 118.105469 36.039062 L 149.070312 97.726562 Z M 224.003906 96.65625 L 254.4375 36.054688 L 259.640625 38.671875 L 229.167969 99.289062 C 227.472656 98.359375 225.738281 97.476562 223.972656 96.65625 Z M 168.527344 90.773438 C 166.625 91.207031 164.75 91.695312 162.894531 92.253906 L 147.117188 25.496094 L 147.15625 25.644531 C 146.46875 22.917969 152.042969 21.53125 152.785156 24.148438 L 168.566406 90.773438 Z M 204.132812 90.222656 L 219.800781 24.148438 C 219.890625 23.773438 220.046875 23.429688 220.273438 23.117188 C 220.5 22.804688 220.777344 22.546875 221.105469 22.34375 C 221.433594 22.140625 221.789062 22.007812 222.171875 21.949219 C 222.554688 21.886719 222.929688 21.898438 223.308594 21.988281 C 223.683594 22.078125 224.027344 22.238281 224.339844 22.464844 C 224.652344 22.6875 224.910156 22.964844 225.113281 23.296875 C 225.316406 23.625 225.449219 23.980469 225.507812 24.359375 C 225.570312 24.742188 225.554688 25.121094 225.464844 25.496094 L 209.816406 91.523438 C 207.949219 91.027344 206.054688 90.59375 204.140625 90.222656 Z M 183.351562 88.753906 L 183.351562 20.574219 L 189.171875 20.574219 L 189.171875 88.699219 L 187.625 88.699219 C 186.183594 88.699219 184.761719 88.699219 183.34375 88.808594 Z M 183.351562 88.753906 " fill-opacity="1" fill-rule="evenodd"/></g></svg>