<svg xmlns="http://www.w3.org/2000/svg" xmlns:xlink="http://www.w3.org/1999/xlink" width="500" zoomAndPan="magnify" viewBox="0 0 375 374.999991" height="500" preserveAspectRatio="xMidYMid meet" version="1.0"><defs><clipPath id="5ace5424e2"><path d="M 35.867188 37.5 L 338.867188 37.5 L 338.867188 340.5 L 35.867188 340.5 Z M 35.867188 37.5 " clip-rule="nonzero"/></clipPath><clipPath id="a3f2c12522"><path d="M 147.816406 158.960938 L 353.042969 158.960938 L 353.042969 285.699219 L 147.816406 285.699219 Z M 147.816406 158.960938 " clip-rule="nonzero"/></clipPath></defs><path fill="#e1dddb" d="M 39.234375 162.472656 C 39.410156 162.164062 39.585938 161.933594 39.75 161.855469 C 39.269531 163.636719 38.800781 165.378906 38.332031 167.113281 C 37.824219 169.769531 37.390625 172.449219 37.335938 175.179688 C 37.292969 177.542969 36.707031 179.886719 36.519531 182.25 C 36.328125 184.679688 36.242188 187.128906 36.113281 189.570312 C 36.289062 189.65625 36.46875 189.761719 36.636719 189.871094 C 38.703125 191.25 40.449219 193.214844 43.15625 193.222656 C 43.410156 194.039062 43.640625 194.761719 43.855469 195.472656 C 45.410156 195.941406 46.707031 197.351562 48.300781 196.21875 C 48.972656 196.449219 49.503906 196.71875 50.066406 196.796875 C 52.105469 197.066406 53.601562 198.238281 54.917969 199.671875 C 55.960938 200.8125 56.914062 202.050781 56.453125 203.746094 C 56.089844 204.601562 55.8125 205.488281 55.621094 206.390625 C 55.359375 207.683594 56.835938 207.699219 57.199219 208.53125 C 57.652344 209.640625 58.222656 210.703125 58.617188 211.820312 C 59.210938 213.5 59.859375 215.1875 58.425781 216.859375 C 57.9375 217.4375 57.863281 218.269531 58.515625 218.960938 C 60.421875 220.972656 60.8125 223.585938 61.238281 226.144531 C 61.539062 227.929688 61.859375 229.609375 63.863281 230.15625 C 64.71875 231.636719 64.765625 231.960938 64.511719 233.753906 C 64.339844 234.988281 65.644531 236.488281 67.03125 235.820312 C 67.253906 235.71875 67.5 235.671875 67.808594 235.574219 C 67.941406 236.066406 68.023438 236.511719 68.1875 236.914062 C 68.539062 237.753906 68.800781 238.671875 69.335938 239.371094 C 70.3125 240.644531 71.574219 241.707031 72.507812 243.015625 C 73.339844 244.179688 74.101562 245.105469 76.136719 244.300781 C 78.023438 242.523438 77.167969 239.300781 78.578125 236.867188 C 78.75 236.753906 79.019531 236.644531 79.210938 236.453125 C 80.429688 235.234375 82.601562 235.101562 83.925781 235.851562 C 84.882812 236.398438 85.851562 236.511719 86.890625 236.367188 C 87.355469 236.304688 87.800781 236.058594 88.257812 236.042969 C 89.835938 236.003906 91.40625 236.027344 92.964844 236.027344 C 93.902344 236.375 94.835938 236.722656 95.882812 237.113281 C 95.667969 237.230469 95.566406 237.292969 95.460938 237.351562 C 95.34375 237.414062 95.214844 237.476562 95.191406 237.492188 C 98.488281 239.148438 100.230469 241.714844 100.105469 245.480469 C 100.105469 245.480469 99.960938 245.503906 99.945312 245.574219 C 99.472656 247.015625 99.058594 248.492188 98.527344 249.910156 C 97.925781 251.507812 97.101562 253.03125 96.59375 254.664062 C 96.03125 256.46875 95.199219 258.085938 94.097656 259.609375 C 93.679688 260.1875 93.425781 260.914062 93.203125 261.605469 C 92.925781 262.445312 92.746094 263.316406 92.546875 264.179688 C 92.148438 265.867188 90.992188 266.777344 89.464844 267.429688 C 88.347656 267.902344 88.023438 269.003906 88.632812 270.042969 C 89.527344 271.554688 90.4375 273.007812 90.199219 274.914062 C 90.128906 275.480469 90.492188 276.253906 90.914062 276.683594 C 91.359375 277.132812 92.101562 277.285156 92.753906 277.59375 C 92.988281 278.015625 93.355469 278.503906 93.550781 279.058594 C 93.988281 280.289062 94.882812 280.667969 96.070312 280.660156 C 97.292969 280.644531 98.511719 280.660156 99.890625 280.660156 C 99.890625 281.675781 99.890625 282.492188 99.890625 283.308594 C 99.882812 284.914062 100.382812 285.390625 102.171875 285.804688 C 102.378906 285.582031 102.617188 285.328125 102.871094 285.058594 C 103.75 284.90625 104.660156 284.75 105.769531 284.550781 C 105.945312 283.671875 106.128906 282.769531 106.238281 282.183594 C 107.1875 281.722656 107.894531 281.34375 108.632812 281.023438 C 109.351562 280.714844 110.074219 280.367188 110.832031 280.21875 C 112.316406 279.914062 113.671875 279.464844 114.535156 278.078125 C 116.332031 277.5625 117.148438 277 117.554688 275.828125 C 118.472656 273.1875 118.21875 270.652344 116.492188 268.425781 C 115.851562 267.601562 114.945312 266.921875 114.042969 266.367188 C 112.464844 265.398438 110.644531 265.40625 108.859375 265.257812 C 108.0625 265.195312 107.179688 264.988281 106.515625 264.566406 C 105.261719 263.773438 104.042969 263 102.5625 262.707031 C 102.207031 262.632812 101.886719 262.347656 101.414062 262.078125 C 104.726562 258.585938 108.109375 255.433594 111.078125 251.945312 C 111.070312 251.9375 111.070312 251.929688 111.078125 251.945312 C 111.09375 251.96875 111.160156 252.039062 111.191406 252.078125 C 112.441406 251.367188 113.640625 250.683594 114.835938 250.011719 C 114.90625 250.089844 114.984375 250.171875 115.058594 250.25 C 114.660156 250.953125 114.226562 251.636719 113.882812 252.367188 C 112.792969 254.742188 111.253906 256.769531 109.390625 258.601562 C 108.875 259.109375 108.679688 260.082031 108.640625 260.851562 C 108.625 261.152344 109.421875 261.753906 109.882812 261.785156 C 111.640625 261.914062 113.457031 262.128906 115.160156 261.808594 C 117.585938 261.367188 119.066406 262.570312 120.460938 264.140625 C 122.117188 266.011719 123.941406 267.65625 126.160156 268.824219 C 127.988281 269.789062 128.941406 271.359375 129.550781 273.292969 C 130.238281 275.46875 131.132812 277.59375 131.972656 279.726562 C 132.417969 280.851562 132.902344 281.953125 133.425781 283.039062 C 133.660156 283.519531 133.957031 284.1875 134.382812 284.34375 C 135.5625 284.78125 136.824219 285.003906 138.148438 285.328125 C 138.929688 284.425781 139.621094 283.617188 140.316406 282.800781 C 140.246094 282.703125 140.175781 282.609375 140.105469 282.523438 C 140.808594 282.355469 141.523438 282.207031 142.226562 282.023438 C 143.351562 281.730469 144.492188 281.460938 145.601562 281.105469 C 146.410156 280.851562 147.179688 280.496094 147.964844 280.167969 C 149.105469 279.703125 150.585938 279.898438 151.285156 278.527344 C 151.480469 278.140625 151.679688 277.753906 151.839844 277.355469 C 152.582031 275.445312 154.382812 275.367188 155.984375 274.914062 C 157.257812 274.558594 158.574219 274.242188 159.777344 273.703125 C 161.039062 273.140625 162.28125 272.546875 163.667969 272.453125 C 165.949219 272.285156 168.242188 272.238281 170.523438 272.109375 C 172.042969 272.023438 173.558594 271.914062 175.070312 271.769531 C 176.433594 271.644531 177.789062 271.460938 179.023438 271.320312 C 179.175781 271.136719 179.238281 271 179.332031 270.960938 C 180.6875 270.335938 182.066406 269.765625 183.390625 269.066406 C 184.03125 268.734375 184.746094 268.285156 185.085938 267.699219 C 185.863281 266.320312 186.410156 264.796875 187.097656 263.363281 C 187.742188 262.023438 188.4375 260.714844 189.121094 259.402344 C 189.699219 258.292969 190.300781 257.191406 191.003906 255.875 C 190.253906 255.726562 189.792969 255.636719 189.382812 255.558594 C 189.199219 253.6875 189.105469 251.707031 188.808594 249.757812 C 188.453125 247.414062 187.914062 245.089844 187.503906 242.753906 C 187.097656 240.449219 186.363281 238.324219 185.148438 236.28125 C 184.539062 235.257812 184.539062 233.792969 184.539062 232.53125 C 184.539062 231.960938 185.222656 231.390625 185.585938 230.8125 C 185.726562 230.582031 185.941406 230.34375 185.964844 230.101562 C 186.101562 228.769531 186.1875 227.4375 186.28125 226.136719 C 185.484375 225.65625 184.863281 225.289062 184.261719 224.894531 C 183.953125 224.695312 183.589844 224.503906 183.390625 224.21875 C 182.320312 222.675781 181.289062 221.097656 180.199219 219.449219 C 180.347656 218.023438 179.570312 216.449219 180.523438 215.132812 C 180.15625 210.835938 182.605469 207.683594 184.347656 204.285156 C 184.546875 204.269531 184.777344 204.316406 184.960938 204.238281 C 185.742188 203.886719 187.011719 201.289062 186.65625 200.480469 C 185.910156 198.777344 185.308594 196.890625 184.121094 195.550781 C 183.058594 194.347656 182.835938 192.976562 182.140625 191.664062 C 182.597656 190.988281 183.035156 190.347656 183.605469 189.507812 C 183.074219 189.371094 182.710938 189.207031 182.34375 189.214844 C 181.648438 189.222656 180.917969 189.476562 180.261719 189.347656 C 179.214844 189.140625 178.175781 188.785156 177.195312 188.351562 C 175.648438 187.675781 174.128906 186.933594 172.644531 186.125 C 172.125 185.839844 171.710938 185.308594 171.347656 184.816406 C 171.03125 184.386719 170.957031 183.769531 170.609375 183.390625 C 169.777344 182.488281 168.851562 181.679688 167.964844 180.839844 C 167.378906 180.285156 167.3125 179.585938 167.582031 178.898438 C 167.8125 178.304688 168.144531 177.742188 168.511719 177.21875 C 169.277344 176.117188 169.261719 174.429688 168.398438 173.445312 C 167.011719 171.859375 165.300781 170.757812 163.328125 170.046875 C 162.980469 169.917969 162.664062 169.714844 162.394531 169.570312 C 162.386719 168.382812 163.027344 167.449219 164.015625 167.121094 C 164.738281 166.894531 165.53125 166.8125 166.179688 166.464844 C 167.71875 165.625 169.222656 164.714844 170.664062 163.722656 C 172.597656 162.40625 174.476562 161.003906 176.347656 159.609375 C 176.765625 159.292969 177.097656 158.851562 177.433594 158.429688 C 178.207031 157.441406 179.007812 156.464844 179.707031 155.417969 C 180.5625 154.136719 181.566406 152.867188 182.082031 151.441406 C 182.867188 149.246094 183.320312 146.933594 183.835938 144.660156 C 184.199219 143.058594 184.707031 141.417969 184.667969 139.816406 C 184.570312 136.125 184.863281 132.386719 183.714844 128.796875 C 183.550781 128.367188 183.382812 127.941406 183.128906 127.289062 C 182.195312 125.152344 180.070312 124.40625 177.542969 124.011719 C 178.296875 123.164062 178.761719 122.296875 179.484375 121.878906 C 181.132812 120.929688 182.058594 119.375 183.207031 117.988281 C 183.714844 117.378906 184.429688 116.839844 185.148438 116.515625 C 185.917969 116.171875 186.859375 116.214844 187.660156 115.914062 C 188.367188 115.652344 189.160156 115.292969 189.59375 114.730469 C 190.816406 113.15625 191.433594 111.292969 191.671875 109.304688 C 191.820312 108.066406 191.988281 106.839844 192.128906 105.605469 C 192.296875 104.152344 192.398438 102.703125 192.597656 101.253906 C 192.789062 99.859375 192.96875 98.464844 193.320312 97.101562 C 193.644531 95.839844 194.152344 94.628906 194.640625 93.425781 C 195.054688 92.417969 194.886719 91.617188 194.015625 91.046875 C 194.378906 89.296875 194.484375 87.617188 193.953125 85.953125 C 193.667969 85.058594 193.289062 84.203125 192.984375 83.3125 C 192.535156 81.992188 192.152344 80.636719 191.695312 79.320312 C 190.949219 77.207031 189.207031 75.804688 187.867188 74.113281 C 186.726562 72.671875 185.308594 71.445312 184.207031 69.972656 C 182.726562 67.988281 180.808594 66.683594 178.566406 65.804688 C 177.320312 65.320312 176.03125 64.972656 174.753906 64.574219 C 174.300781 64.433594 173.8125 64.410156 173.375 64.234375 C 172.210938 63.765625 171.109375 63.039062 169.90625 62.792969 C 168.542969 62.515625 167.082031 62.5625 165.671875 62.625 C 164.5 62.679688 163.335938 63.148438 162.179688 63.101562 C 159.507812 63 156.847656 62.664062 154.175781 62.492188 C 151.632812 62.324219 149.082031 62.03125 146.554688 62.167969 C 143.835938 62.308594 141.109375 62.546875 138.472656 63.511719 C 136.53125 64.226562 134.429688 64.511719 132.410156 64.996094 C 130.746094 65.390625 129.089844 65.828125 127.417969 66.175781 C 126.941406 66.277344 126.378906 66.269531 125.9375 66.105469 C 124.34375 65.476562 121.941406 65.875 120.832031 67.164062 C 118.972656 69.328125 117.140625 71.546875 114.835938 73.242188 C 112.386719 75.042969 110.4375 77.277344 108.519531 79.582031 C 107.734375 80.523438 106.863281 81.414062 105.90625 82.179688 C 104.589844 83.234375 103.132812 84.105469 101.777344 85.121094 C 100.921875 85.753906 100.144531 86.492188 99.34375 87.195312 C 97.769531 88.589844 96.199219 89.984375 94.628906 91.386719 C 94.042969 91.910156 93.480469 92.472656 92.871094 92.972656 C 92.078125 93.613281 91.214844 94.175781 90.4375 94.84375 C 89.503906 95.644531 88.632812 96.507812 87.632812 97.441406 C 87.53125 96.769531 87.46875 96.371094 87.417969 96.039062 C 87.585938 95.507812 87.671875 94.992188 87.902344 94.542969 C 88.273438 93.820312 88.695312 93.109375 89.179688 92.457031 C 90.136719 91.175781 91.082031 89.875 92.164062 88.695312 C 93.75 86.976562 95.476562 85.390625 97.078125 83.6875 C 97.902344 82.808594 98.574219 81.785156 99.441406 80.675781 C 99.496094 80.652344 99.757812 80.542969 100.011719 80.429688 C 100.019531 80.492188 100.027344 80.566406 100.035156 80.628906 C 100.914062 80.558594 101.800781 80.476562 102.65625 80.40625 C 102.800781 79.503906 102.800781 79.503906 101.738281 78.582031 C 101.816406 78.402344 101.878906 78.1875 101.984375 77.996094 C 103.21875 75.8125 104.464844 73.617188 105.714844 71.4375 C 106.382812 70.28125 107.085938 69.140625 107.726562 67.972656 C 108.019531 67.453125 108.210938 66.871094 108.457031 66.316406 C 108.371094 66.277344 108.28125 66.230469 108.195312 66.191406 C 108.796875 64.996094 109.40625 63.789062 109.773438 63.070312 C 110.066406 61.453125 110.269531 60.34375 110.445312 59.359375 C 110.136719 59.027344 109.875 58.742188 109.621094 58.464844 C 108.894531 58.894531 108.1875 59.351562 107.488281 59.820312 C 107 60.144531 106.53125 60.511719 106.070312 60.882812 C 105.375 61.800781 104.707031 62.746094 104.011719 63.664062 C 103.664062 64.125 103.28125 64.550781 102.941406 64.964844 C 101.953125 64.375 101.269531 64.550781 100.621094 65.183594 C 98.917969 66.863281 97.214844 68.542969 95.476562 70.191406 C 95.152344 70.492188 94.6875 70.675781 94.25 70.820312 C 93.796875 70.96875 93.347656 71.105469 92.894531 71.230469 C 92.570312 71.5 92.246094 71.761719 91.921875 72.03125 C 91.855469 72.261719 91.808594 72.515625 91.660156 72.617188 C 91.066406 73.023438 90.445312 73.410156 89.835938 73.789062 C 89.257812 74.28125 88.679688 74.765625 88.109375 75.257812 C 84.210938 78.640625 79.875 81.554688 76.605469 85.652344 C 75.21875 87.386719 73.632812 88.957031 72.144531 90.605469 C 71.96875 90.792969 71.816406 91.007812 71.707031 91.238281 C 69.972656 94.859375 67.230469 97.789062 64.894531 100.976562 C 62.007812 104.90625 59.550781 109.097656 56.777344 113.082031 C 56.375 113.660156 56.050781 114.289062 55.742188 114.921875 C 55.683594 115.039062 55.628906 115.152344 55.574219 115.269531 C 55.703125 115.40625 55.820312 115.53125 55.953125 115.675781 C 55.835938 115.945312 55.726562 116.277344 55.550781 116.578125 C 54.324219 118.710938 53.085938 120.839844 51.859375 122.972656 C 51.265625 124.207031 50.667969 125.445312 50.089844 126.679688 C 48.800781 129.429688 47.367188 132.132812 46.761719 135.117188 C 46.835938 135.167969 46.90625 135.214844 46.96875 135.253906 C 46.859375 135.617188 46.714844 135.96875 46.574219 136.308594 C 46.550781 136.523438 46.511719 136.726562 46.492188 136.941406 C 46.476562 137.179688 46.34375 137.417969 46.25 137.648438 C 45.71875 139.015625 45.082031 140.355469 44.640625 141.75 C 44.902344 141.847656 45.105469 141.925781 45.335938 142.011719 C 45.171875 142.664062 45.027344 143.28125 44.847656 143.882812 C 44.371094 145.429688 43.894531 146.980469 43.363281 148.511719 C 42.699219 150.445312 42.066406 152.382812 41.320312 154.285156 C 40.605469 156.742188 39.824219 159.175781 39.378906 161.671875 C 39.332031 161.972656 39.285156 162.21875 39.234375 162.472656 Z M 166.339844 231.929688 C 166.640625 231.746094 166.894531 231.496094 167.226562 231.226562 C 167.464844 231.296875 167.679688 231.351562 167.859375 231.40625 C 168.003906 231.765625 168.152344 232.105469 168.289062 232.453125 C 168.566406 233.175781 168.273438 234.441406 167.621094 234.65625 C 167.203125 234.789062 166.546875 234.632812 166.171875 234.355469 C 165.222656 233.65625 165.355469 232.523438 166.339844 231.929688 Z M 140.277344 131.734375 C 141.078125 130.609375 141.910156 129.507812 142.742188 128.414062 C 143.457031 127.480469 144.113281 127.324219 145.113281 127.820312 C 145.816406 128.171875 145.871094 128.464844 145.554688 129.523438 C 144.691406 130.414062 143.960938 131.1875 143.203125 131.933594 C 142.417969 132.710938 140.953125 132.988281 140.097656 132.464844 C 140.144531 132.242188 140.136719 131.933594 140.277344 131.734375 Z M 139.097656 209.339844 C 139.859375 207.484375 140.707031 205.664062 141.523438 203.832031 C 141.648438 203.808594 141.769531 203.792969 141.894531 203.769531 C 142.226562 204.183594 142.6875 204.554688 142.871094 205.023438 C 143.296875 206.140625 144.113281 206.890625 145.0625 207.4375 C 146.726562 208.40625 147.3125 209.949219 147.695312 211.675781 C 146.457031 212.398438 143.691406 211.234375 142.535156 209.355469 C 142.0625 209.769531 141.671875 210.296875 141.15625 210.511719 C 140.636719 210.726562 139.976562 210.617188 139.34375 210.65625 C 139.222656 210.070312 138.988281 209.625 139.097656 209.339844 Z M 110.589844 150.53125 C 110.851562 150.515625 111.09375 150.5 111.371094 150.476562 C 111.421875 150.292969 111.484375 150.109375 111.523438 149.929688 C 111.5625 149.738281 111.578125 149.546875 111.609375 149.335938 C 111.816406 149.320312 112 149.308594 112.253906 149.292969 C 112.472656 150.363281 112.695312 151.386719 112.980469 152.742188 C 113.417969 153.226562 114.113281 153.992188 114.960938 154.929688 C 116.5625 154.554688 118.21875 154.183594 119.867188 153.753906 C 120.089844 153.699219 120.285156 153.390625 120.421875 153.152344 C 121.191406 151.8125 122.226562 151.503906 123.71875 151.871094 C 125.824219 152.386719 127.535156 153.628906 129.421875 154.683594 C 130.753906 154.445312 131.132812 154.777344 131.324219 156.339844 C 133.25 157.359375 133.574219 157.71875 133.382812 158.730469 C 131.730469 158.730469 130.046875 158.730469 128.351562 158.730469 C 128.148438 158.976562 127.972656 159.191406 127.703125 159.523438 C 127.242188 159.570312 126.679688 159.621094 126.125 159.675781 C 126.039062 159.628906 125.953125 159.578125 125.863281 159.53125 C 125.53125 160.65625 125.167969 161.773438 124.875 162.90625 C 124.597656 163.976562 124.496094 165.101562 124.128906 166.140625 C 123.644531 167.527344 122.347656 167.929688 121.101562 168.257812 C 120.753906 169.332031 120.421875 170.378906 120.082031 171.425781 C 119.9375 171.425781 119.796875 171.425781 119.652344 171.425781 C 119.472656 171.078125 119.289062 170.726562 119.027344 170.214844 C 118.441406 171.332031 117.949219 172.496094 117.253906 173.507812 C 116.769531 174.214844 116 174.730469 115.230469 175.449219 C 115.214844 175.5 115.105469 176.011719 114.976562 176.019531 C 114.613281 176.035156 114.136719 175.949219 113.882812 175.710938 C 112.972656 174.878906 112.664062 173.722656 112.839844 172.589844 C 113.101562 170.878906 113.605469 169.207031 114.003906 167.511719 C 114.042969 167.359375 114.050781 167.195312 114.066406 167.058594 C 112.410156 165.355469 112.6875 163.976562 114.667969 162.1875 C 112.703125 158.550781 110.152344 155.078125 110.589844 150.53125 Z M 83.519531 180.039062 C 82.378906 180.417969 81.222656 179.863281 80.960938 178.683594 C 80.46875 176.425781 80.519531 174.144531 81 171.878906 C 81.097656 171.433594 81.375 171.035156 81.621094 170.507812 C 81.753906 170.449219 81.90625 170.363281 82.054688 170.355469 C 82.207031 170.347656 82.363281 170.417969 82.640625 170.484375 C 83.878906 172.257812 85.167969 174.105469 86.222656 175.617188 C 86.515625 177.90625 84.890625 179.585938 83.519531 180.039062 Z M 67.53125 139.398438 C 67.839844 139.035156 68.085938 138.613281 68.332031 138.210938 C 68.878906 137.320312 68.75 136.507812 68.085938 135.730469 C 67.476562 135.03125 67.324219 134.296875 67.570312 133.351562 C 68.195312 130.925781 69.035156 128.589844 70.25 126.410156 C 71.320312 124.484375 72.523438 124.296875 74.378906 125.507812 C 74.457031 125.554688 74.558594 125.5625 74.851562 125.660156 C 75.21875 124.96875 75.589844 124.246094 75.960938 123.535156 C 76.007812 123.558594 76.058594 123.582031 76.113281 123.597656 C 76.015625 124.265625 75.976562 124.9375 75.828125 125.585938 C 75.644531 126.355469 75.589844 127.054688 76.082031 127.757812 C 76.96875 129.035156 77.738281 130.414062 78.671875 131.65625 C 79.226562 132.402344 80.011719 132.972656 80.683594 133.621094 C 80.789062 133.582031 80.890625 133.550781 80.992188 133.511719 C 80.953125 133.851562 80.929688 134.199219 80.859375 134.539062 C 80.789062 134.882812 80.582031 135.222656 80.605469 135.546875 C 80.636719 135.925781 80.753906 136.488281 81.007812 136.601562 C 81.335938 136.75 81.898438 136.65625 82.230469 136.457031 C 82.515625 136.292969 82.777344 136.085938 83.03125 135.871094 C 83.015625 135.855469 83 135.839844 82.980469 135.824219 C 83.03125 135.753906 83.078125 135.691406 83.132812 135.617188 C 83.164062 135.640625 83.203125 135.664062 83.234375 135.691406 C 83.441406 135.507812 83.648438 135.324219 83.863281 135.152344 C 85.828125 135.847656 86.46875 137.304688 86.476562 141.101562 C 85.566406 142.402344 84.636719 143.738281 83.285156 145.679688 C 82.570312 147.820312 82.664062 150.777344 82.722656 153.738281 C 82.738281 154.730469 82.371094 155.722656 82.191406 156.6875 C 80.105469 156.339844 78.832031 155.238281 77.714844 153.804688 C 77.347656 153.335938 76.53125 153.242188 75.992188 152.875 C 75.082031 152.242188 74.265625 151.472656 73.347656 150.855469 C 72.492188 150.277344 71.53125 149.855469 70.667969 149.285156 C 70.121094 148.929688 69.582031 148.503906 69.1875 147.988281 C 68.710938 147.359375 68.386719 146.625 67.976562 145.886719 C 67.617188 144.882812 67.246094 143.820312 66.835938 142.664062 C 67.054688 142.28125 67.324219 141.824219 67.59375 141.363281 C 66.859375 140.714844 66.859375 140.207031 67.53125 139.398438 Z M 207.652344 131.71875 C 208.792969 133.242188 210.03125 134.707031 211.265625 136.15625 C 211.488281 136.417969 211.898438 136.570312 212.257812 136.671875 C 214.222656 137.25 216.1875 137.8125 218.160156 138.335938 C 218.539062 138.4375 218.96875 138.351562 219.441406 138.351562 C 219.761719 139.050781 220.503906 139.058594 221.296875 139.035156 C 222.082031 139.007812 222.867188 139.035156 223.644531 139.113281 C 224.386719 139.191406 225.117188 139.375 225.851562 139.5 C 226.488281 139.613281 227.128906 139.707031 227.730469 139.800781 C 227.777344 140.648438 227.820312 141.300781 227.859375 141.957031 C 226.867188 144.800781 225.878906 147.679688 224.863281 150.539062 C 223.863281 153.359375 222.820312 156.171875 221.820312 158.992188 C 221.480469 159.945312 221.257812 160.941406 220.933594 161.902344 C 220.789062 162.320312 220.519531 162.695312 220.324219 163.097656 C 219.824219 164.097656 219.253906 165.070312 218.863281 166.117188 C 218.585938 166.863281 218.539062 167.703125 218.414062 168.5 C 218.207031 169.761719 217.875 171.011719 217.851562 172.28125 C 217.835938 173.320312 218.199219 174.363281 218.367188 175.410156 C 218.609375 176.988281 218.609375 178.515625 217.699219 179.953125 C 217.328125 180.539062 217.074219 181.21875 216.882812 181.882812 C 216.605469 182.828125 217.019531 183.628906 217.859375 184.136719 C 218.421875 184.46875 218.945312 184.863281 219.570312 185.292969 C 220.441406 184.917969 220.65625 185.539062 220.695312 186.457031 C 221.1875 186.519531 221.652344 186.582031 222.097656 186.640625 C 222.097656 186.898438 222.035156 187.226562 222.105469 187.527344 C 222.738281 190.09375 224.339844 192.167969 225.757812 194.292969 C 227.121094 196.328125 228.878906 198.089844 230.433594 199.996094 C 231.203125 200.941406 231.890625 201.957031 232.597656 202.945312 C 232.753906 203.175781 232.914062 203.4375 232.960938 203.699219 C 233.097656 204.507812 233.253906 205.332031 233.269531 206.148438 C 233.308594 207.820312 234.441406 208.910156 235.265625 210.171875 C 235.304688 210.234375 235.441406 210.242188 235.710938 210.339844 C 236.304688 209.988281 236.996094 209.585938 237.824219 209.09375 C 239 209.71875 240.195312 209.371094 241.390625 208.9375 C 242.207031 208.632812 242.992188 208.175781 243.832031 208.007812 C 245.640625 207.644531 247.515625 207.550781 249.300781 207.097656 C 252.253906 206.34375 254.832031 207.613281 257.414062 208.539062 C 259.433594 209.269531 261.335938 210.148438 263.515625 209.449219 C 263.933594 209.316406 264.417969 209 264.609375 208.632812 C 265.566406 206.773438 266.46875 204.878906 267.332031 202.960938 C 267.894531 201.71875 268.222656 200.355469 268.863281 199.15625 C 269.679688 197.652344 270.820312 196.410156 272.367188 195.511719 C 273.1875 195.039062 274.078125 194.261719 274.402344 193.414062 C 275.203125 191.335938 275.796875 189.160156 276.289062 186.988281 C 276.84375 184.546875 277.269531 182.089844 278.632812 179.917969 C 279.21875 178.984375 280.097656 178.566406 281.304688 178.214844 C 281.359375 178.945312 281.453125 179.5625 281.4375 180.171875 C 281.414062 181.347656 281.296875 182.511719 281.269531 183.683594 C 281.253906 184.785156 281.445312 185.910156 281.3125 186.988281 C 281.019531 189.378906 280.535156 191.75 280.226562 194.132812 C 279.867188 196.875 279.480469 199.625 279.363281 202.382812 C 279.28125 204.171875 279.617188 205.996094 279.859375 207.792969 C 280.027344 209.046875 280.34375 210.28125 280.621094 211.511719 C 280.9375 212.929688 281.175781 214.378906 281.667969 215.734375 C 282 216.652344 282.554688 217.476562 283.546875 218.046875 C 285.382812 219.09375 287.117188 220.328125 288.824219 221.589844 C 289.742188 222.269531 290.050781 223.347656 289.910156 224.449219 C 289.457031 224.980469 288.957031 225.496094 288.824219 226.097656 C 288.371094 228.046875 287.160156 229.417969 285.628906 230.558594 C 284.957031 231.058594 284.710938 231.699219 284.773438 232.460938 C 284.910156 234.070312 284.941406 235.726562 285.34375 237.269531 C 285.660156 238.484375 285.511719 239.441406 284.84375 240.375 C 283.847656 241.78125 283.679688 243.277344 284.164062 244.878906 C 283.832031 245.074219 283.515625 245.265625 283.039062 245.542969 C 283.355469 245.835938 283.570312 246.183594 283.847656 246.242188 C 284.679688 246.40625 285.574219 246.675781 286.359375 246.519531 C 288.261719 246.136719 289.957031 245.28125 291.429688 243.925781 C 292.222656 243.199219 292.917969 242.023438 294.527344 242.476562 C 294.6875 242.714844 294.957031 243.078125 295.191406 243.46875 C 295.757812 244.410156 296.992188 245.035156 297.941406 244.871094 C 298.964844 244.6875 299.742188 243.972656 299.957031 242.683594 C 300.113281 241.746094 300.25 240.78125 300.597656 239.902344 C 301.375 237.921875 301.953125 235.898438 302.148438 233.777344 C 302.222656 232.984375 302.546875 232.199219 301.839844 231.496094 C 301.699219 231.351562 301.769531 230.941406 301.824219 230.664062 C 302.207031 228.886719 302.554688 227.105469 303.023438 225.355469 C 303.511719 223.515625 304.082031 221.699219 304.703125 219.910156 C 304.882812 219.386719 305.335938 218.953125 305.660156 218.476562 C 305.738281 218.539062 305.8125 218.640625 305.898438 218.667969 C 306.976562 218.902344 308.085938 219.039062 309.125 219.386719 C 310.527344 219.847656 311.625 219.132812 311.53125 217.652344 C 311.5 217.113281 311.375 216.589844 311.285156 216.050781 C 311.375 215.703125 311.453125 215.332031 311.5625 214.964844 C 312.023438 213.5 311.113281 211.988281 311.730469 210.519531 C 312.164062 209.492188 311.847656 208.277344 312.941406 207.367188 C 313.8125 206.636719 314.605469 205.609375 314.78125 204.324219 C 314.828125 203.953125 314.882812 203.554688 315.035156 203.214844 C 315.699219 201.726562 316.476562 200.273438 317.070312 198.753906 C 317.472656 197.730469 318.148438 197.058594 318.957031 196.367188 C 320.542969 195.03125 322.007812 193.554688 322.792969 191.550781 C 322.996094 191.027344 323.21875 190.519531 323.441406 190.007812 C 323.679688 189.453125 324.136719 188.890625 324.097656 188.359375 C 324.019531 187.234375 323.804688 186.066406 323.402344 185.023438 C 322.824219 183.507812 322.785156 182.074219 323.320312 180.578125 C 323.480469 180.132812 323.519531 179.640625 323.582031 179.339844 C 324.828125 177.851562 325.859375 176.371094 325.753906 174.53125 C 325.691406 173.304688 325.136719 172.105469 324.78125 170.847656 C 325.175781 170.449219 324.796875 169.871094 324.574219 169.382812 C 324.3125 168.800781 323.773438 168.34375 323.582031 167.757812 C 323.203125 166.585938 322.648438 165.671875 321.285156 165.417969 C 321.230469 165.570312 321.160156 165.777344 321.070312 166.019531 C 320.105469 165.53125 320.460938 164.421875 319.953125 163.890625 C 319.398438 163.304688 318.527344 163.011719 317.839844 162.613281 C 318.019531 162.359375 318.210938 162.089844 318.535156 161.640625 C 318.046875 161.640625 317.785156 161.65625 317.523438 161.640625 C 317.117188 161.609375 316.601562 161.703125 316.324219 161.488281 C 315.289062 160.695312 314.226562 159.898438 313.371094 158.921875 C 312.734375 158.199219 312.132812 157.964844 311.261719 158.199219 C 309.226562 156.519531 307.949219 156.917969 306.675781 158.660156 C 305.84375 159.214844 305.152344 159.675781 304.519531 160.101562 C 302.894531 159.660156 301.667969 159.007812 300.683594 157.519531 C 299.488281 155.710938 299.433594 154.058594 299.921875 152.125 C 300.183594 151.101562 300.359375 150.007812 300.320312 148.960938 C 300.273438 147.726562 299.90625 146.511719 299.734375 145.277344 C 299.449219 143.28125 299.351562 141.246094 298.878906 139.304688 C 298.417969 137.402344 297.640625 135.5625 296.898438 133.734375 C 296.246094 132.132812 295.460938 130.585938 294.734375 129.019531 C 294.074219 127.582031 293.457031 126.132812 292.761719 124.722656 C 291.898438 122.972656 290.683594 121.476562 289.394531 120.015625 C 288.234375 118.710938 287.253906 117.242188 286.128906 115.90625 C 284.242188 113.660156 281.96875 112.007812 278.941406 111.816406 C 276.460938 111.65625 273.964844 111.679688 271.476562 111.625 C 271.058594 111.617188 270.644531 111.570312 270.234375 111.570312 C 269.742188 111.570312 269.242188 111.578125 268.753906 111.617188 C 268.054688 111.671875 267.359375 111.800781 266.660156 111.824219 C 265.742188 111.863281 264.828125 111.832031 263.910156 111.832031 C 263.5625 111.601562 263.191406 111.492188 262.816406 111.476562 C 262.445312 111.460938 262.023438 111.664062 261.691406 111.5625 C 259.871094 110.976562 258.601562 111.792969 257.382812 113.019531 C 256.652344 113.757812 255.828125 114.511719 254.894531 114.890625 C 253.554688 115.4375 252.082031 115.652344 250.804688 115.96875 C 248.117188 115.769531 247.097656 114.351562 247.675781 111.855469 C 247.335938 111.894531 247.175781 111.910156 247.199219 111.910156 C 247.246094 111.394531 247.351562 110.921875 247.335938 110.445312 C 247.292969 109.199219 247.167969 107.957031 247.136719 106.714844 C 247.089844 104.9375 246.953125 103.257812 245.535156 101.894531 C 243.808594 100.222656 242.050781 98.449219 239.863281 97.578125 C 237.253906 96.53125 234.417969 95.945312 231.628906 95.492188 C 229.996094 95.230469 228.253906 95.621094 226.441406 95.730469 C 225.324219 94.382812 224.777344 94.113281 224.261719 94.714844 C 223.992188 94.480469 223.722656 94.25 223.601562 94.144531 C 221.472656 95.019531 219.878906 96.285156 218.976562 97.765625 C 215.625 99.203125 212.429688 100.160156 210.347656 103.027344 C 210.625 103.257812 210.878906 103.464844 211.351562 103.851562 C 210.78125 103.765625 210.503906 103.71875 210.355469 103.695312 C 209.132812 105.945312 207.960938 108.089844 206.796875 110.238281 C 206.742188 110.4375 206.457031 110.554688 206.378906 110.746094 C 205.972656 111.800781 205.386719 112.855469 205.292969 113.949219 C 205.023438 116.894531 204.878906 119.867188 204.871094 122.828125 C 204.863281 123.960938 205.402344 125.078125 205.617188 126.222656 C 205.996094 128.1875 206.441406 130.113281 207.652344 131.71875 Z M 261.175781 168.265625 C 262.722656 168.199219 263.386719 167.574219 264.070312 166.527344 C 264.371094 166.394531 264.65625 166.265625 264.910156 166.15625 C 266.335938 166.796875 266.804688 168.160156 265.953125 169.375 C 265.25 170.378906 264.734375 171.410156 264.601562 172.644531 C 264.570312 172.976562 264.25 173.273438 264.109375 173.605469 C 263.855469 174.191406 263.625 174.785156 263.46875 175.410156 C 262.53125 176.710938 261.828125 176.027344 260.234375 173.738281 C 259.796875 173.929688 259.402344 174.105469 259.234375 174.183594 C 258.6875 174.183594 258.363281 174.183594 258.046875 174.183594 C 256.992188 171.503906 258.433594 168.375 261.175781 168.265625 Z M 315.113281 113.914062 C 316.023438 113.882812 316.9375 113.875 317.839844 113.78125 C 318.78125 115.414062 319.75 117.03125 320.859375 118.535156 C 322.65625 120.984375 323.574219 123.796875 325.011719 126.386719 C 327.988281 131.765625 330.113281 137.511719 331.910156 143.390625 C 332.054688 143.867188 332.195312 144.351562 332.332031 144.824219 C 331.871094 144.90625 331.414062 144.960938 330.96875 144.90625 C 328.511719 144.589844 326.214844 145.609375 323.796875 145.5 C 323.355469 145.476562 322.886719 145.871094 322.433594 146.078125 C 321.460938 146.539062 320.515625 147.109375 319.496094 147.410156 C 318.972656 147.566406 318.304688 147.25 317.808594 147.171875 C 317.386719 146.355469 317.09375 145.722656 316.738281 145.117188 C 316.601562 144.882812 316.382812 144.621094 316.136719 144.523438 C 314.304688 143.859375 312.957031 142.6875 312.171875 140.886719 C 311.539062 139.4375 310.769531 138.042969 310.265625 136.546875 C 309.972656 135.675781 310.019531 134.667969 310.035156 133.726562 C 310.074219 131.71875 310.160156 129.722656 310.289062 127.71875 C 310.476562 124.652344 310.945312 121.65625 312.792969 119.113281 C 312.957031 117.847656 313.054688 116.695312 313.289062 115.578125 C 313.496094 114.667969 314.019531 113.957031 315.113281 113.914062 Z M 274.972656 228.207031 C 275.40625 229.410156 275.40625 230.582031 274.902344 231.820312 C 273.886719 234.316406 273.0625 236.898438 272.03125 239.386719 C 271.035156 241.804688 269.324219 243.59375 266.828125 244.5625 C 265.636719 245.027344 264.488281 245.589844 263.292969 246.042969 C 262.601562 246.304688 261.867188 246.542969 261.128906 246.597656 C 259.0625 246.746094 256.953125 246.699219 255.035156 245.898438 C 254.148438 245.527344 253.394531 244.664062 252.761719 243.871094 C 251.480469 242.285156 250.796875 240.488281 251.628906 238.453125 C 251.882812 237.824219 252.359375 237.292969 252.746094 236.722656 C 252.792969 236.652344 252.953125 236.636719 252.976562 236.566406 C 253.65625 234.742188 255.488281 234.679688 256.90625 234.007812 C 257.53125 233.707031 258.183594 233.445312 258.894531 233.125 C 258.730469 232.121094 258.570312 231.183594 258.402344 230.171875 C 258.855469 228.925781 259.863281 229.234375 260.757812 229.394531 C 262.191406 229.648438 263.71875 229.125 264.441406 227.921875 C 265.621094 225.957031 266.722656 223.941406 267.886719 221.898438 C 268.117188 221.8125 268.386719 221.714844 268.65625 221.621094 C 268.617188 221.574219 268.578125 221.535156 268.539062 221.488281 C 268.957031 221.113281 269.339844 220.496094 269.804688 220.417969 C 270.8125 220.25 271.421875 221.097656 271.914062 221.8125 C 272.53125 222.714844 272.984375 223.738281 273.476562 224.726562 C 273.816406 225.410156 274.125 226.105469 274.410156 226.804688 C 274.519531 227.082031 274.535156 227.398438 274.625 227.859375 C 274.640625 227.875 274.902344 228.007812 274.972656 228.207031 Z M 195.824219 142.363281 C 196.402344 141.640625 196.957031 140.894531 197.519531 140.167969 C 197.699219 140.222656 197.882812 140.277344 198.074219 140.332031 C 198.667969 140.855469 199.261719 141.386719 199.863281 141.902344 C 200.832031 142.734375 201.933594 143.152344 203.238281 143.027344 C 205.941406 142.773438 208.546875 143.027344 210.671875 144.945312 C 212.488281 146.585938 213.300781 148.636719 212.921875 151.101562 C 212.804688 151.839844 212.644531 152.574219 212.390625 153.289062 C 212.828125 155.0625 209.460938 157.726562 207.359375 157.882812 C 205.847656 159.152344 204.292969 160.546875 201.957031 160.269531 C 199.917969 160.023438 197.960938 159.546875 196.441406 158.960938 C 194.683594 158.527344 193.328125 158.011719 191.941406 157.882812 C 190.5625 157.757812 189.152344 158.027344 187.488281 158.136719 C 187.734375 157.242188 187.929688 156.527344 188.121094 155.824219 C 188.214844 155.832031 188.3125 155.839844 188.40625 155.847656 C 188.222656 155.453125 188.035156 155.054688 187.929688 154.816406 C 188.167969 154.4375 188.429688 154.175781 188.507812 153.867188 C 189 152.082031 189.453125 150.292969 189.902344 148.496094 C 190.308594 146.910156 191.609375 146.085938 192.851562 145.371094 C 194.160156 144.628906 194.945312 143.472656 195.824219 142.363281 Z M 125.398438 296.300781 C 125.523438 296.886719 125.628906 297.484375 125.777344 298.265625 C 125.015625 298.425781 124.320312 298.496094 123.679688 298.726562 C 123.011719 298.972656 122.402344 299.375 121.722656 299.742188 C 121.183594 299.503906 120.636719 299.257812 120.015625 298.980469 C 119.773438 299.128906 119.503906 299.296875 119.203125 299.480469 C 116.984375 299.589844 114.707031 299.859375 112.5625 299.136719 C 112.316406 297.039062 113.347656 294.789062 114.375 294.433594 C 114.605469 293.820312 114.699219 293.324219 114.960938 292.957031 C 115.492188 292.214844 116.214844 291.59375 116.707031 290.828125 C 117.996094 288.8125 119.21875 286.746094 120.246094 284.621094 C 120.445312 283.886719 120.636719 283.148438 120.832031 282.410156 C 121.347656 282.308594 121.785156 282.230469 122.21875 282.140625 C 122.933594 282.460938 123.203125 283.023438 123.304688 283.796875 C 123.464844 284.996094 123.828125 286.167969 123.996094 287.371094 C 124.199219 288.871094 124.21875 290.398438 124.445312 291.886719 C 124.683594 293.378906 125.082031 294.835938 125.398438 296.300781 Z M 186.609375 303.242188 C 186.835938 303.902344 187.179688 304.558594 187.195312 305.230469 C 187.210938 305.851562 187.050781 306.746094 186.632812 307.046875 C 185.007812 308.21875 184.046875 309.976562 182.621094 311.285156 C 181.15625 312.632812 179.507812 313.789062 177.367188 313.148438 C 176.617188 314.1875 175.949219 315.105469 175.285156 316.03125 C 173.265625 315.042969 174.878906 314.035156 174.847656 313.042969 C 174.113281 311.976562 174.292969 310.40625 175.609375 307.601562 C 175.964844 307.164062 176.339844 306.738281 176.6875 306.292969 C 177.582031 305.128906 178.445312 303.941406 179.359375 302.792969 C 179.585938 302.5 179.90625 302.148438 180.238281 302.078125 C 181.339844 301.855469 181.550781 300.992188 181.84375 300.136719 C 182.113281 299.351562 182.367188 298.550781 182.734375 297.808594 C 182.929688 297.410156 183.351562 297.125 183.84375 296.609375 C 184.261719 297.332031 184.59375 297.761719 184.777344 298.242188 C 185.417969 299.898438 186.011719 301.570312 186.609375 303.242188 Z M 192.234375 165.238281 C 193.167969 167.171875 192.636719 169.0625 191.664062 170.832031 C 190.839844 172.320312 189.53125 173.589844 188.960938 175.140625 C 188.28125 177.003906 186.902344 178.34375 186.019531 180.039062 C 185.671875 180.710938 184.878906 181.164062 184.097656 181.902344 C 183.589844 181.3125 183.238281 180.886719 182.867188 180.488281 C 181.347656 178.890625 180.570312 177.160156 181.8125 175.023438 C 181.957031 174.785156 182.019531 174.46875 182.019531 174.183594 C 182.019531 171.378906 183.730469 169.355469 185.324219 167.359375 C 185.941406 166.59375 187.136719 166.28125 187.828125 165.902344 C 188.628906 164.824219 189.308594 163.914062 190.117188 162.828125 C 190.964844 163.785156 191.601562 164.515625 192.234375 165.238281 Z M 71.058594 251.335938 C 70.859375 252.769531 70.527344 253.988281 69.503906 254.964844 C 68.457031 255.953125 66.558594 256.066406 65.503906 255.058594 C 63.785156 253.417969 61.929688 251.84375 61.042969 249.558594 C 60.265625 247.570312 59.625 245.511719 59.140625 243.433594 C 58.957031 242.652344 59.394531 241.722656 59.574219 240.742188 C 61.96875 241.265625 63.363281 242.523438 63.710938 244.609375 C 66.984375 246.167969 69.765625 247.960938 71.058594 251.335938 Z M 173.769531 281.082031 C 173.382812 282.453125 172.082031 283.039062 170.746094 283.25 C 168.722656 283.578125 166.980469 284.410156 165.617188 285.898438 C 164.945312 286.636719 164.523438 287.601562 163.921875 288.410156 C 163.683594 288.726562 163.25 288.902344 162.941406 289.113281 C 160.949219 287.539062 159.785156 283.226562 160.777344 281.222656 C 160.902344 281.4375 161.015625 281.605469 161.117188 281.769531 C 161.71875 281.46875 162.351562 281.144531 163.152344 280.738281 C 162.734375 280.636719 162.488281 280.582031 162.25 280.527344 C 162.242188 280.460938 162.242188 280.40625 162.234375 280.34375 C 165.714844 279.367188 169.183594 278.386719 172.488281 277.460938 C 173.984375 278.511719 174.113281 279.851562 173.769531 281.082031 Z M 291.035156 100.492188 C 290.582031 99.488281 291.335938 98.765625 291.847656 98.078125 C 292.222656 97.585938 292.800781 97.226562 293.347656 96.894531 C 294.328125 96.300781 295.144531 95.597656 295.335938 94.390625 C 297.316406 94.757812 298.839844 96.699219 301.144531 95.597656 C 301.292969 96.429688 301.460938 97.015625 301.5 97.609375 C 301.691406 100.429688 300.929688 101.292969 298.1875 102.324219 C 296.9375 102.789062 295.738281 102.871094 294.613281 101.886719 C 294.273438 101.59375 293.65625 101.585938 293.148438 101.523438 C 292.308594 101.429688 291.429688 101.371094 291.035156 100.492188 Z M 291.035156 100.492188 " fill-opacity="1" fill-rule="nonzero"/><g clip-path="url(#5ace5424e2)"><path fill="#ffffff" d="M 166.339844 231.929688 C 166.640625 231.746094 166.894531 231.496094 167.226562 231.226562 C 167.464844 231.296875 167.679688 231.351562 167.859375 231.40625 C 168.003906 231.765625 168.152344 232.105469 168.289062 232.453125 C 168.566406 233.175781 168.273438 234.441406 167.621094 234.65625 C 167.203125 234.789062 166.546875 234.632812 166.171875 234.355469 C 165.222656 233.65625 165.355469 232.523438 166.339844 231.929688 Z M 91.90625 72.070312 C 91.207031 72.648438 90.511719 73.242188 89.820312 73.828125 C 90.4375 73.449219 91.046875 73.070312 91.644531 72.65625 C 91.792969 72.554688 91.839844 72.292969 91.90625 72.070312 Z M 46.753906 135.160156 C 46.675781 135.554688 46.613281 135.953125 46.566406 136.355469 C 46.707031 136.007812 46.851562 135.65625 46.960938 135.300781 C 46.898438 135.253906 46.828125 135.214844 46.753906 135.160156 Z M 44.839844 143.929688 C 45.027344 143.328125 45.164062 142.710938 45.328125 142.058594 C 45.097656 141.972656 44.894531 141.902344 44.632812 141.800781 C 44.578125 141.964844 44.511719 142.140625 44.464844 142.304688 C 43.5 145.722656 42.699219 149.175781 41.796875 152.605469 C 41.644531 153.183594 41.476562 153.753906 41.3125 154.324219 C 42.050781 152.425781 42.691406 150.476562 43.355469 148.550781 C 43.886719 147.019531 44.363281 145.476562 44.839844 143.929688 Z M 259.226562 174.175781 C 259.394531 174.105469 259.796875 173.921875 260.226562 173.730469 C 261.820312 176.019531 262.523438 176.703125 263.460938 175.402344 C 263.617188 174.777344 263.847656 174.183594 264.101562 173.597656 C 264.242188 173.261719 264.558594 172.96875 264.59375 172.636719 C 264.726562 171.402344 265.234375 170.363281 265.945312 169.363281 C 266.796875 168.160156 266.328125 166.789062 264.902344 166.148438 C 264.648438 166.257812 264.363281 166.394531 264.0625 166.519531 C 263.386719 167.566406 262.714844 168.191406 261.167969 168.257812 C 258.425781 168.367188 256.992188 171.503906 258.03125 174.167969 C 258.347656 174.175781 258.679688 174.175781 259.226562 174.175781 Z M 95.460938 70.226562 C 97.199219 68.585938 98.902344 66.898438 100.605469 65.21875 C 101.246094 64.582031 101.9375 64.410156 102.925781 64.996094 C 103.265625 64.582031 103.648438 64.15625 103.996094 63.695312 C 104.691406 62.777344 105.359375 61.832031 106.054688 60.914062 C 105.429688 61.414062 104.820312 61.9375 104.179688 62.417969 C 103.511719 62.917969 102.75 63.300781 102.101562 63.824219 C 99.035156 66.308594 95.945312 68.765625 92.886719 71.269531 C 93.339844 71.136719 93.789062 71 94.242188 70.859375 C 94.667969 70.714844 95.136719 70.535156 95.460938 70.226562 Z M 110.429688 59.394531 C 110.121094 59.058594 109.859375 58.773438 109.605469 58.496094 C 110.769531 57.808594 111.992188 57.199219 113.3125 56.785156 C 114.121094 56.53125 114.75 55.773438 115.53125 55.398438 C 117.902344 54.265625 120.320312 53.238281 122.695312 52.109375 C 124.3125 51.34375 125.832031 50.359375 127.472656 49.664062 C 129.828125 48.664062 132.21875 47.730469 134.652344 46.960938 C 139.050781 45.558594 143.589844 44.550781 147.886719 42.910156 C 152.488281 41.152344 157.289062 40.304688 162.042969 39.378906 C 166.789062 38.441406 171.601562 37.585938 176.519531 37.847656 C 179.777344 38.023438 183.058594 37.753906 186.324219 37.800781 C 189.144531 37.839844 191.964844 37.945312 194.769531 38.179688 C 197.890625 38.441406 201.003906 38.894531 204.117188 39.234375 C 206.859375 39.527344 209.617188 39.695312 212.351562 40.066406 C 215.140625 40.449219 217.914062 40.988281 220.6875 41.5 C 224.023438 42.121094 227.390625 42.660156 230.679688 43.480469 C 235.671875 44.71875 240.464844 46.582031 245.09375 48.816406 C 250.519531 51.4375 255.996094 53.980469 261.296875 56.839844 C 264.203125 58.410156 267.382812 59.621094 269.78125 62.085938 C 270.28125 62.601562 271.152344 62.738281 271.777344 63.164062 C 273.09375 64.066406 274.410156 64.988281 275.628906 66.015625 C 278.949219 68.820312 282.214844 71.683594 285.511719 74.511719 C 287.355469 76.097656 289.226562 77.65625 291.082031 79.226562 C 295.804688 83.21875 299.574219 88.101562 303.710938 92.640625 C 308.210938 97.585938 311.554688 103.25 314.996094 108.882812 C 315.976562 110.5 316.886719 112.164062 317.839844 113.804688 C 316.9375 113.90625 316.023438 113.914062 315.113281 113.9375 C 314.019531 113.980469 313.496094 114.691406 313.308594 115.609375 C 313.070312 116.726562 312.980469 117.886719 312.808594 119.144531 C 310.960938 121.6875 310.5 124.683594 310.304688 127.75 C 310.175781 129.746094 310.089844 131.75 310.050781 133.757812 C 310.035156 134.699219 309.988281 135.707031 310.28125 136.578125 C 310.777344 138.066406 311.554688 139.46875 312.191406 140.917969 C 312.972656 142.71875 314.320312 143.890625 316.152344 144.554688 C 316.398438 144.644531 316.617188 144.914062 316.753906 145.152344 C 317.101562 145.753906 317.402344 146.386719 317.824219 147.203125 C 318.316406 147.28125 318.980469 147.597656 319.511719 147.441406 C 320.53125 147.140625 321.46875 146.5625 322.449219 146.109375 C 322.902344 145.894531 323.371094 145.507812 323.8125 145.53125 C 326.230469 145.640625 328.535156 144.613281 330.984375 144.9375 C 331.429688 144.992188 331.886719 144.9375 332.347656 144.855469 C 333.773438 149.800781 334.789062 154.824219 335.675781 159.886719 C 336.515625 164.683594 337.371094 169.476562 337.917969 174.308594 C 338.535156 179.785156 338.828125 185.292969 338.265625 190.824219 C 337.996094 193.476562 338.125 196.171875 338.019531 198.847656 C 337.855469 203.183594 337.878906 207.527344 336.949219 211.796875 C 336.269531 214.925781 335.691406 218.078125 335.113281 221.226562 C 334.953125 222.082031 335.089844 222.992188 334.898438 223.832031 C 334.621094 225.078125 334.167969 226.28125 333.789062 227.5 C 332.457031 231.765625 331.207031 236.050781 329.757812 240.273438 C 329.011719 242.453125 328.011719 244.550781 326.976562 246.613281 C 324.265625 251.976562 321.484375 257.300781 318.703125 262.625 C 317.085938 265.714844 315.558594 268.863281 313.726562 271.824219 C 312.125 274.417969 310.175781 276.800781 308.347656 279.242188 C 306.390625 281.847656 304.449219 284.472656 302.394531 287.007812 C 301.308594 288.347656 300.027344 289.535156 298.796875 290.753906 C 295.984375 293.550781 293.140625 296.324219 290.320312 299.113281 C 289.042969 300.375 287.894531 301.777344 286.515625 302.910156 C 280.984375 307.433594 275.589844 312.125 269.402344 315.808594 C 267.222656 317.101562 265.304688 318.828125 262.96875 319.929688 C 259.332031 321.648438 255.789062 323.589844 252.121094 325.253906 C 247.976562 327.140625 243.746094 328.835938 239.546875 330.59375 C 238.65625 330.96875 237.738281 331.246094 236.828125 331.5625 C 233.570312 332.695312 230.363281 334.011719 227.042969 334.898438 C 223.460938 335.855469 219.777344 336.425781 216.140625 337.148438 C 214.253906 337.519531 212.367188 337.925781 210.472656 338.21875 C 204.117188 339.199219 197.757812 340.046875 191.296875 339.84375 C 190.164062 339.800781 189.03125 340.097656 187.890625 340.199219 C 187.1875 340.261719 186.472656 340.355469 185.777344 340.285156 C 181.835938 339.851562 177.898438 339.414062 173.976562 338.890625 C 171.070312 338.503906 168.160156 338.042969 165.269531 337.519531 C 162.386719 336.996094 159.523438 336.355469 156.65625 335.753906 C 153.527344 335.097656 150.40625 334.421875 147.28125 333.75 C 146.910156 333.667969 146.539062 333.550781 146.164062 333.457031 C 143.875 332.863281 141.5625 332.347656 139.304688 331.648438 C 137.417969 331.0625 135.601562 330.261719 133.757812 329.558594 C 131.253906 328.597656 128.742188 327.640625 126.253906 326.65625 C 125.359375 326.300781 124.46875 325.914062 123.621094 325.460938 C 118.550781 322.71875 113.410156 320.089844 108.449219 317.140625 C 105.320312 315.277344 102.449219 312.972656 99.503906 310.816406 C 97.59375 309.421875 95.675781 308.027344 93.871094 306.507812 C 90.769531 303.910156 87.761719 301.214844 84.710938 298.550781 C 83.601562 297.585938 82.476562 296.625 81.40625 295.621094 C 80.636719 294.890625 79.941406 294.082031 79.203125 293.316406 C 79.21875 293.308594 79.226562 293.296875 79.242188 293.289062 C 77.609375 291.683594 75.890625 290.160156 74.378906 288.449219 C 72.429688 286.246094 70.660156 283.886719 68.78125 281.621094 C 65.289062 277.410156 62.152344 272.984375 59.664062 268.078125 C 58.300781 265.398438 56.460938 262.96875 54.980469 260.335938 C 53.917969 258.457031 53.132812 256.414062 52.144531 254.488281 C 49.164062 248.71875 46.714844 242.722656 44.71875 236.558594 C 43.402344 232.5 42.359375 228.363281 41.160156 224.269531 C 40.71875 222.746094 40.140625 221.257812 39.765625 219.710938 C 39.496094 218.609375 39.457031 217.445312 39.257812 215.820312 C 38.285156 213.683594 38.175781 210.828125 37.605469 208.089844 C 36.976562 205.125 36.714844 202.144531 36.691406 199.125 C 36.667969 196.835938 35.835938 194.625 35.996094 192.296875 C 36.058594 191.402344 36.105469 190.511719 36.144531 189.617188 C 36.320312 189.707031 36.503906 189.808594 36.667969 189.917969 C 38.738281 191.296875 40.480469 193.261719 43.191406 193.269531 C 43.445312 194.085938 43.671875 194.808594 43.886719 195.519531 C 45.441406 195.988281 46.738281 197.398438 48.332031 196.265625 C 49.003906 196.496094 49.535156 196.765625 50.097656 196.84375 C 52.136719 197.113281 53.632812 198.285156 54.949219 199.71875 C 55.996094 200.863281 56.945312 202.097656 56.484375 203.792969 C 56.121094 204.648438 55.84375 205.535156 55.652344 206.441406 C 55.390625 207.730469 56.867188 207.746094 57.230469 208.578125 C 57.683594 209.6875 58.253906 210.75 58.648438 211.867188 C 59.242188 213.546875 59.894531 215.234375 58.457031 216.90625 C 57.96875 217.484375 57.894531 218.316406 58.546875 219.007812 C 60.457031 221.019531 60.84375 223.632812 61.273438 226.195312 C 61.574219 227.976562 61.890625 229.65625 63.894531 230.203125 C 64.75 231.683594 64.796875 232.007812 64.542969 233.800781 C 64.371094 235.035156 65.675781 236.535156 67.0625 235.867188 C 67.285156 235.765625 67.53125 235.71875 67.839844 235.621094 C 67.976562 236.113281 68.054688 236.558594 68.21875 236.960938 C 68.570312 237.800781 68.832031 238.722656 69.371094 239.417969 C 70.34375 240.695312 71.605469 241.753906 72.539062 243.0625 C 73.371094 244.226562 74.132812 245.15625 76.167969 244.347656 C 78.054688 242.570312 77.199219 239.347656 78.609375 236.914062 C 78.78125 236.804688 79.050781 236.691406 79.242188 236.503906 C 80.460938 235.28125 82.632812 235.148438 83.957031 235.898438 C 84.914062 236.445312 85.882812 236.558594 86.921875 236.414062 C 87.386719 236.351562 87.832031 236.105469 88.292969 236.089844 C 89.867188 236.050781 91.4375 236.074219 92.996094 236.074219 C 93.933594 236.421875 94.867188 236.773438 95.914062 237.160156 C 95.699219 237.277344 95.597656 237.34375 95.492188 237.398438 C 95.375 237.460938 95.25 237.523438 95.222656 237.539062 C 98.519531 239.195312 100.265625 241.761719 100.136719 245.527344 C 100.136719 245.527344 99.996094 245.550781 99.980469 245.621094 C 99.503906 247.0625 99.089844 248.539062 98.558594 249.957031 C 97.957031 251.558594 97.132812 253.078125 96.625 254.710938 C 96.0625 256.515625 95.230469 258.132812 94.132812 259.65625 C 93.710938 260.234375 93.457031 260.960938 93.234375 261.652344 C 92.957031 262.492188 92.777344 263.363281 92.578125 264.226562 C 92.183594 265.914062 91.023438 266.824219 89.496094 267.476562 C 88.378906 267.949219 88.054688 269.050781 88.664062 270.089844 C 89.558594 271.605469 90.46875 273.054688 90.234375 274.964844 C 90.160156 275.527344 90.527344 276.300781 90.945312 276.730469 C 91.390625 277.183594 92.132812 277.332031 92.785156 277.640625 C 93.023438 278.0625 93.386719 278.554688 93.585938 279.109375 C 94.019531 280.335938 94.914062 280.714844 96.105469 280.707031 C 97.324219 280.691406 98.542969 280.707031 99.921875 280.707031 C 99.921875 281.722656 99.921875 282.539062 99.921875 283.355469 C 99.914062 284.964844 100.414062 285.4375 102.207031 285.851562 C 102.410156 285.628906 102.648438 285.375 102.902344 285.105469 C 103.78125 284.957031 104.691406 284.796875 105.800781 284.597656 C 105.976562 283.71875 106.160156 282.816406 106.269531 282.230469 C 107.222656 281.769531 107.925781 281.390625 108.664062 281.074219 C 109.382812 280.761719 110.105469 280.414062 110.867188 280.265625 C 112.347656 279.964844 113.703125 279.511719 114.566406 278.125 C 116.363281 277.609375 117.179688 277.046875 117.585938 275.875 C 118.503906 273.234375 118.25 270.699219 116.523438 268.472656 C 115.882812 267.648438 114.976562 266.96875 114.074219 266.414062 C 112.496094 265.445312 110.675781 265.453125 108.894531 265.304688 C 108.09375 265.242188 107.210938 265.035156 106.546875 264.613281 C 105.296875 263.824219 104.074219 263.046875 102.59375 262.753906 C 102.238281 262.683594 101.917969 262.398438 101.445312 262.128906 C 104.757812 258.632812 108.140625 255.480469 111.109375 251.992188 C 111.128906 252.015625 111.191406 252.085938 111.222656 252.128906 C 112.472656 251.414062 113.671875 250.734375 114.867188 250.058594 C 114.9375 250.136719 115.019531 250.21875 115.089844 250.296875 C 114.691406 251.003906 114.257812 251.683594 113.917969 252.414062 C 112.824219 254.789062 111.285156 256.816406 109.421875 258.648438 C 108.910156 259.15625 108.710938 260.128906 108.671875 260.898438 C 108.65625 261.199219 109.457031 261.800781 109.914062 261.832031 C 111.675781 261.960938 113.488281 262.175781 115.191406 261.859375 C 117.617188 261.414062 119.097656 262.617188 120.492188 264.1875 C 122.148438 266.058594 123.972656 267.707031 126.191406 268.871094 C 128.019531 269.835938 128.972656 271.40625 129.582031 273.339844 C 130.269531 275.519531 131.164062 277.640625 132.007812 279.773438 C 132.449219 280.898438 132.933594 282 133.457031 283.085938 C 133.695312 283.570312 133.988281 284.234375 134.414062 284.390625 C 135.59375 284.828125 136.855469 285.050781 138.179688 285.375 C 138.960938 284.472656 139.652344 283.664062 140.347656 282.847656 C 140.277344 282.753906 140.207031 282.65625 140.136719 282.570312 C 140.839844 282.402344 141.554688 282.253906 142.257812 282.070312 C 143.382812 281.777344 144.523438 281.507812 145.632812 281.152344 C 146.441406 280.898438 147.210938 280.542969 147.996094 280.214844 C 149.136719 279.75 150.617188 279.949219 151.316406 278.578125 C 151.515625 278.1875 151.710938 277.800781 151.871094 277.402344 C 152.617188 275.496094 154.414062 275.414062 156.015625 274.964844 C 157.289062 274.605469 158.605469 274.289062 159.808594 273.75 C 161.070312 273.1875 162.3125 272.59375 163.699219 272.5 C 165.984375 272.332031 168.273438 272.285156 170.554688 272.160156 C 172.074219 272.070312 173.589844 271.960938 175.101562 271.816406 C 176.464844 271.691406 177.820312 271.507812 179.054688 271.367188 C 179.207031 271.183594 179.269531 271.050781 179.367188 271.007812 C 180.71875 270.382812 182.097656 269.8125 183.421875 269.117188 C 184.0625 268.78125 184.777344 268.332031 185.117188 267.746094 C 185.894531 266.367188 186.441406 264.84375 187.128906 263.410156 C 187.773438 262.070312 188.46875 260.765625 189.152344 259.449219 C 189.730469 258.339844 190.332031 257.238281 191.035156 255.921875 C 190.285156 255.773438 189.824219 255.683594 189.414062 255.605469 C 189.230469 253.734375 189.136719 251.753906 188.84375 249.804688 C 188.484375 247.460938 187.945312 245.140625 187.535156 242.800781 C 187.128906 240.496094 186.394531 238.371094 185.179688 236.328125 C 184.570312 235.304688 184.570312 233.839844 184.570312 232.578125 C 184.570312 232.007812 185.253906 231.4375 185.617188 230.859375 C 185.761719 230.628906 185.972656 230.394531 185.996094 230.148438 C 186.132812 228.816406 186.21875 227.484375 186.316406 226.183594 C 185.515625 225.703125 184.894531 225.335938 184.292969 224.941406 C 183.984375 224.742188 183.621094 224.554688 183.421875 224.269531 C 182.351562 222.722656 181.324219 221.144531 180.230469 219.496094 C 180.378906 218.070312 179.601562 216.496094 180.554688 215.179688 C 180.191406 210.886719 182.636719 207.730469 184.382812 204.332031 C 184.578125 204.316406 184.808594 204.363281 184.992188 204.285156 C 185.777344 203.9375 187.042969 201.335938 186.6875 200.527344 C 185.941406 198.824219 185.339844 196.9375 184.152344 195.601562 C 183.089844 194.394531 182.867188 193.023438 182.171875 191.710938 C 182.628906 191.035156 183.066406 190.394531 183.636719 189.554688 C 183.105469 189.417969 182.742188 189.253906 182.375 189.261719 C 181.679688 189.269531 180.949219 189.523438 180.292969 189.394531 C 179.246094 189.191406 178.207031 188.832031 177.226562 188.398438 C 175.679688 187.722656 174.160156 186.980469 172.679688 186.171875 C 172.15625 185.886719 171.742188 185.355469 171.378906 184.863281 C 171.0625 184.4375 170.988281 183.816406 170.640625 183.4375 C 169.808594 182.535156 168.882812 181.726562 167.996094 180.886719 C 167.410156 180.332031 167.34375 179.632812 167.613281 178.945312 C 167.84375 178.351562 168.175781 177.789062 168.542969 177.265625 C 169.308594 176.164062 169.292969 174.476562 168.429688 173.492188 C 167.042969 171.910156 165.332031 170.808594 163.359375 170.09375 C 163.011719 169.96875 162.695312 169.761719 162.425781 169.617188 C 162.417969 168.429688 163.058594 167.496094 164.050781 167.171875 C 164.769531 166.941406 165.5625 166.859375 166.210938 166.511719 C 167.75 165.671875 169.253906 164.761719 170.695312 163.769531 C 172.628906 162.457031 174.507812 161.054688 176.378906 159.660156 C 176.796875 159.339844 177.132812 158.898438 177.464844 158.476562 C 178.242188 157.488281 179.039062 156.511719 179.738281 155.46875 C 180.59375 154.183594 181.601562 152.914062 182.113281 151.488281 C 182.898438 149.292969 183.351562 146.980469 183.867188 144.707031 C 184.230469 143.105469 184.738281 141.464844 184.699219 139.867188 C 184.601562 136.171875 184.894531 132.433594 183.746094 128.84375 C 183.582031 128.414062 183.414062 127.988281 183.160156 127.339844 C 182.226562 125.199219 180.101562 124.453125 177.574219 124.058594 C 178.328125 123.210938 178.796875 122.347656 179.515625 121.925781 C 181.164062 120.976562 182.089844 119.421875 183.238281 118.035156 C 183.746094 117.425781 184.460938 116.886719 185.179688 116.5625 C 185.949219 116.222656 186.894531 116.261719 187.691406 115.960938 C 188.398438 115.699219 189.191406 115.339844 189.625 114.777344 C 190.847656 113.203125 191.464844 111.339844 191.703125 109.351562 C 191.851562 108.117188 192.019531 106.886719 192.164062 105.652344 C 192.328125 104.199219 192.429688 102.75 192.628906 101.300781 C 192.820312 99.90625 193.003906 98.511719 193.351562 97.148438 C 193.675781 95.890625 194.183594 94.675781 194.675781 93.472656 C 195.085938 92.464844 194.917969 91.664062 194.046875 91.09375 C 194.414062 89.34375 194.515625 87.664062 193.984375 86 C 193.699219 85.105469 193.320312 84.25 193.019531 83.363281 C 192.566406 82.039062 192.1875 80.683594 191.726562 79.367188 C 190.980469 77.253906 189.238281 75.851562 187.898438 74.164062 C 186.757812 72.71875 185.339844 71.492188 184.238281 70.019531 C 182.757812 68.039062 180.839844 66.730469 178.597656 65.851562 C 177.351562 65.367188 176.0625 65.019531 174.785156 64.621094 C 174.332031 64.480469 173.84375 64.457031 173.40625 64.28125 C 172.242188 63.8125 171.140625 63.085938 169.9375 62.839844 C 168.574219 62.5625 167.117188 62.609375 165.707031 62.671875 C 164.53125 62.730469 163.367188 63.195312 162.210938 63.148438 C 159.539062 63.046875 156.878906 62.710938 154.207031 62.539062 C 151.664062 62.371094 149.113281 62.078125 146.585938 62.214844 C 143.867188 62.355469 141.140625 62.59375 138.503906 63.5625 C 136.5625 64.273438 134.460938 64.558594 132.441406 65.042969 C 130.777344 65.4375 129.121094 65.875 127.449219 66.222656 C 126.972656 66.324219 126.410156 66.316406 125.96875 66.152344 C 124.375 65.527344 121.972656 65.921875 120.867188 67.214844 C 119.003906 69.375 117.171875 71.59375 114.867188 73.289062 C 112.417969 75.089844 110.46875 77.324219 108.550781 79.628906 C 107.765625 80.574219 106.894531 81.460938 105.9375 82.230469 C 104.621094 83.28125 103.164062 84.152344 101.808594 85.167969 C 100.953125 85.800781 100.175781 86.539062 99.375 87.246094 C 97.800781 88.640625 96.230469 90.035156 94.660156 91.4375 C 94.074219 91.957031 93.511719 92.523438 92.902344 93.019531 C 92.109375 93.664062 91.246094 94.226562 90.46875 94.890625 C 89.535156 95.691406 88.664062 96.554688 87.664062 97.488281 C 87.5625 96.816406 87.5 96.421875 87.453125 96.085938 C 87.617188 95.554688 87.703125 95.042969 87.933594 94.589844 C 88.308594 93.867188 88.726562 93.15625 89.210938 92.503906 C 90.167969 91.222656 91.113281 89.921875 92.199219 88.742188 C 93.78125 87.023438 95.507812 85.4375 97.109375 83.734375 C 97.933594 82.855469 98.609375 81.832031 99.472656 80.722656 C 99.527344 80.699219 99.789062 80.589844 100.042969 80.476562 C 100.050781 80.539062 100.058594 80.613281 100.066406 80.675781 C 100.945312 80.605469 101.832031 80.523438 102.6875 80.453125 C 102.832031 79.550781 102.832031 79.550781 101.769531 78.632812 C 101.847656 78.449219 101.910156 78.234375 102.015625 78.046875 C 103.25 75.859375 104.496094 73.664062 105.746094 71.484375 C 106.414062 70.328125 107.117188 69.1875 107.757812 68.023438 C 108.050781 67.5 108.242188 66.921875 108.488281 66.367188 C 108.402344 66.324219 108.3125 66.277344 108.226562 66.238281 C 108.828125 65.042969 109.4375 63.839844 109.804688 63.117188 C 110.042969 61.492188 110.246094 60.375 110.429688 59.394531 Z M 71.058594 251.335938 C 69.765625 247.960938 66.984375 246.160156 63.703125 244.609375 C 63.355469 242.523438 61.960938 241.265625 59.566406 240.742188 C 59.394531 241.722656 58.949219 242.652344 59.132812 243.433594 C 59.617188 245.511719 60.265625 247.570312 61.035156 249.558594 C 61.921875 251.835938 63.777344 253.417969 65.496094 255.058594 C 66.546875 256.066406 68.449219 255.953125 69.496094 254.964844 C 70.527344 253.996094 70.859375 252.769531 71.058594 251.335938 Z M 125.777344 298.265625 C 125.628906 297.484375 125.523438 296.886719 125.398438 296.300781 C 125.082031 294.828125 124.683594 293.371094 124.453125 291.886719 C 124.226562 290.398438 124.210938 288.871094 124.003906 287.371094 C 123.835938 286.175781 123.472656 285.003906 123.3125 283.796875 C 123.210938 283.023438 122.941406 282.460938 122.226562 282.140625 C 121.785156 282.230469 121.355469 282.308594 120.839844 282.410156 C 120.644531 283.148438 120.453125 283.886719 120.253906 284.621094 C 119.21875 286.738281 118.003906 288.804688 116.714844 290.828125 C 116.222656 291.59375 115.507812 292.214844 114.96875 292.957031 C 114.699219 293.332031 114.613281 293.828125 114.382812 294.433594 C 113.355469 294.789062 112.324219 297.039062 112.570312 299.136719 C 114.714844 299.867188 116.984375 299.597656 119.210938 299.480469 C 119.511719 299.296875 119.78125 299.128906 120.023438 298.980469 C 120.636719 299.25 121.191406 299.496094 121.730469 299.742188 C 122.410156 299.375 123.019531 298.972656 123.6875 298.726562 C 124.3125 298.496094 125.015625 298.425781 125.777344 298.265625 Z M 172.480469 277.460938 C 169.183594 278.386719 165.707031 279.367188 162.226562 280.34375 C 162.234375 280.40625 162.234375 280.460938 162.242188 280.527344 C 162.488281 280.582031 162.734375 280.644531 163.144531 280.738281 C 162.34375 281.144531 161.710938 281.460938 161.109375 281.769531 C 161.007812 281.59375 160.902344 281.429688 160.769531 281.222656 C 159.777344 283.226562 160.941406 287.539062 162.933594 289.113281 C 163.234375 288.902344 163.667969 288.734375 163.914062 288.410156 C 164.515625 287.601562 164.9375 286.636719 165.609375 285.898438 C 166.972656 284.410156 168.714844 283.570312 170.738281 283.25 C 172.074219 283.039062 173.375 282.460938 173.761719 281.082031 C 174.113281 279.851562 173.984375 278.511719 172.480469 277.460938 Z M 187.203125 305.222656 C 187.1875 304.558594 186.84375 303.894531 186.617188 303.234375 C 186.019531 301.5625 185.417969 299.890625 184.785156 298.234375 C 184.59375 297.753906 184.269531 297.324219 183.851562 296.601562 C 183.359375 297.117188 182.9375 297.402344 182.742188 297.800781 C 182.375 298.535156 182.121094 299.335938 181.855469 300.128906 C 181.558594 300.984375 181.347656 301.847656 180.246094 302.070312 C 179.914062 302.132812 179.59375 302.492188 179.367188 302.785156 C 178.453125 303.933594 177.589844 305.121094 176.695312 306.285156 C 176.355469 306.738281 175.980469 307.15625 175.617188 307.59375 C 174.300781 310.40625 174.128906 311.96875 174.855469 313.035156 C 174.890625 314.019531 173.273438 315.035156 175.292969 316.023438 C 175.957031 315.097656 176.625 314.175781 177.375 313.140625 C 179.515625 313.78125 181.164062 312.625 182.628906 311.277344 C 184.054688 309.96875 185.015625 308.210938 186.640625 307.039062 C 187.058594 306.746094 187.21875 305.84375 187.203125 305.222656 Z M 192.234375 165.238281 C 191.601562 164.515625 190.957031 163.785156 190.109375 162.828125 C 189.300781 163.914062 188.628906 164.824219 187.820312 165.902344 C 187.128906 166.28125 185.933594 166.585938 185.316406 167.359375 C 183.722656 169.355469 182.011719 171.378906 182.011719 174.183594 C 182.011719 174.460938 181.949219 174.777344 181.804688 175.023438 C 180.5625 177.160156 181.339844 178.890625 182.859375 180.488281 C 183.238281 180.886719 183.582031 181.3125 184.089844 181.902344 C 184.871094 181.164062 185.664062 180.71875 186.011719 180.039062 C 186.894531 178.351562 188.273438 177.003906 188.953125 175.140625 C 189.523438 173.582031 190.839844 172.3125 191.65625 170.832031 C 192.644531 169.0625 193.175781 167.171875 192.234375 165.238281 Z M 274.972656 228.207031 C 274.902344 228.007812 274.640625 227.875 274.632812 227.867188 C 274.542969 227.40625 274.527344 227.089844 274.417969 226.8125 C 274.132812 226.105469 273.824219 225.410156 273.484375 224.734375 C 272.992188 223.753906 272.539062 222.730469 271.921875 221.820312 C 271.4375 221.105469 270.820312 220.25 269.8125 220.425781 C 269.347656 220.503906 268.964844 221.121094 268.546875 221.496094 C 268.585938 221.542969 268.625 221.582031 268.664062 221.628906 C 268.394531 221.726562 268.132812 221.828125 267.894531 221.90625 C 266.730469 223.953125 265.628906 225.964844 264.449219 227.929688 C 263.730469 229.132812 262.199219 229.65625 260.765625 229.402344 C 259.871094 229.246094 258.863281 228.933594 258.410156 230.179688 C 258.578125 231.195312 258.738281 232.121094 258.902344 233.132812 C 258.191406 233.453125 257.546875 233.714844 256.914062 234.015625 C 255.488281 234.6875 253.664062 234.75 252.984375 236.574219 C 252.960938 236.644531 252.800781 236.660156 252.753906 236.730469 C 252.367188 237.300781 251.890625 237.832031 251.636719 238.460938 C 250.804688 240.496094 251.488281 242.292969 252.769531 243.878906 C 253.402344 244.664062 254.15625 245.535156 255.042969 245.90625 C 256.96875 246.707031 259.070312 246.753906 261.136719 246.605469 C 261.867188 246.550781 262.601562 246.3125 263.300781 246.050781 C 264.496094 245.597656 265.644531 245.035156 266.835938 244.570312 C 269.332031 243.59375 271.042969 241.8125 272.039062 239.394531 C 273.070312 236.90625 273.894531 234.324219 274.910156 231.828125 C 275.40625 230.582031 275.40625 229.410156 274.972656 228.207031 Z M 291.035156 100.492188 C 291.429688 101.378906 292.308594 101.429688 293.148438 101.53125 C 293.648438 101.585938 294.273438 101.59375 294.613281 101.894531 C 295.738281 102.878906 296.9375 102.804688 298.1875 102.332031 C 300.9375 101.300781 301.699219 100.429688 301.5 97.617188 C 301.460938 97.023438 301.292969 96.429688 301.144531 95.605469 C 298.839844 96.707031 297.316406 94.765625 295.335938 94.398438 C 295.144531 95.613281 294.328125 96.308594 293.347656 96.902344 C 292.808594 97.234375 292.222656 97.59375 291.847656 98.085938 C 291.328125 98.757812 290.582031 99.488281 291.035156 100.492188 Z M 204.886719 122.835938 C 204.878906 123.96875 205.417969 125.089844 205.632812 126.230469 C 205.996094 128.179688 206.441406 130.105469 207.652344 131.710938 C 208.792969 133.234375 210.03125 134.699219 211.265625 136.148438 C 211.488281 136.410156 211.898438 136.5625 212.257812 136.664062 C 214.222656 137.242188 216.1875 137.804688 218.160156 138.328125 C 218.539062 138.429688 218.96875 138.34375 219.441406 138.34375 C 219.761719 139.042969 220.503906 139.050781 221.296875 139.027344 C 222.082031 139 222.867188 139.027344 223.644531 139.105469 C 224.386719 139.183594 225.117188 139.367188 225.855469 139.492188 C 226.488281 139.605469 227.128906 139.699219 227.730469 139.792969 C 227.777344 140.640625 227.820312 141.292969 227.859375 141.949219 C 226.867188 144.792969 225.878906 147.671875 224.863281 150.53125 C 223.863281 153.351562 222.820312 156.164062 221.820312 158.984375 C 221.480469 159.9375 221.257812 160.933594 220.933594 161.894531 C 220.789062 162.3125 220.519531 162.6875 220.324219 163.089844 C 219.824219 164.089844 219.253906 165.0625 218.863281 166.109375 C 218.585938 166.851562 218.539062 167.691406 218.414062 168.492188 C 218.207031 169.753906 217.875 171.003906 217.851562 172.273438 C 217.835938 173.3125 218.199219 174.355469 218.367188 175.402344 C 218.609375 176.980469 218.609375 178.507812 217.699219 179.941406 C 217.328125 180.53125 217.074219 181.210938 216.882812 181.875 C 216.605469 182.820312 217.019531 183.621094 217.859375 184.125 C 218.421875 184.460938 218.945312 184.855469 219.570312 185.285156 C 220.441406 184.910156 220.65625 185.53125 220.695312 186.449219 C 221.1875 186.511719 221.652344 186.574219 222.097656 186.628906 C 222.097656 186.890625 222.035156 187.21875 222.105469 187.519531 C 222.738281 190.085938 224.339844 192.160156 225.757812 194.285156 C 227.121094 196.320312 228.878906 198.082031 230.433594 199.988281 C 231.203125 200.933594 231.890625 201.945312 232.597656 202.9375 C 232.753906 203.167969 232.914062 203.429688 232.960938 203.691406 C 233.097656 204.5 233.253906 205.324219 233.269531 206.140625 C 233.308594 207.8125 234.441406 208.902344 235.265625 210.164062 C 235.304688 210.226562 235.441406 210.234375 235.710938 210.332031 C 236.304688 209.980469 236.996094 209.578125 237.824219 209.085938 C 239 209.710938 240.195312 209.363281 241.390625 208.929688 C 242.207031 208.625 242.992188 208.167969 243.832031 208 C 245.640625 207.636719 247.515625 207.542969 249.300781 207.089844 C 252.253906 206.335938 254.832031 207.605469 257.414062 208.53125 C 259.433594 209.261719 261.335938 210.140625 263.515625 209.441406 C 263.933594 209.308594 264.417969 208.992188 264.609375 208.625 C 265.566406 206.765625 266.46875 204.871094 267.332031 202.953125 C 267.894531 201.710938 268.222656 200.347656 268.863281 199.148438 C 269.679688 197.644531 270.820312 196.402344 272.367188 195.503906 C 273.1875 195.03125 274.078125 194.253906 274.402344 193.40625 C 275.203125 191.328125 275.796875 189.152344 276.289062 186.980469 C 276.84375 184.539062 277.269531 182.082031 278.632812 179.910156 C 279.21875 178.976562 280.097656 178.554688 281.304688 178.207031 C 281.359375 178.9375 281.453125 179.554688 281.4375 180.164062 C 281.414062 181.335938 281.296875 182.503906 281.269531 183.675781 C 281.253906 184.777344 281.445312 185.902344 281.3125 186.980469 C 281.019531 189.371094 280.535156 191.742188 280.226562 194.125 C 279.867188 196.867188 279.480469 199.617188 279.363281 202.375 C 279.28125 204.164062 279.617188 205.988281 279.859375 207.785156 C 280.027344 209.039062 280.34375 210.273438 280.621094 211.503906 C 280.9375 212.921875 281.175781 214.371094 281.667969 215.726562 C 282 216.644531 282.554688 217.46875 283.546875 218.039062 C 285.382812 219.085938 287.117188 220.320312 288.824219 221.582031 C 289.742188 222.261719 290.050781 223.339844 289.910156 224.441406 C 289.457031 224.972656 288.957031 225.488281 288.824219 226.089844 C 288.371094 228.039062 287.160156 229.410156 285.628906 230.550781 C 284.957031 231.050781 284.710938 231.691406 284.773438 232.453125 C 284.910156 234.0625 284.941406 235.71875 285.34375 237.261719 C 285.660156 238.476562 285.511719 239.433594 284.84375 240.367188 C 283.847656 241.769531 283.679688 243.269531 284.164062 244.871094 C 283.832031 245.066406 283.515625 245.257812 283.039062 245.535156 C 283.355469 245.828125 283.570312 246.175781 283.847656 246.234375 C 284.679688 246.398438 285.574219 246.667969 286.359375 246.511719 C 288.261719 246.128906 289.957031 245.273438 291.429688 243.917969 C 292.222656 243.191406 292.917969 242.015625 294.527344 242.46875 C 294.6875 242.707031 294.957031 243.070312 295.191406 243.460938 C 295.757812 244.402344 296.992188 245.027344 297.941406 244.863281 C 298.964844 244.679688 299.742188 243.964844 299.957031 242.675781 C 300.113281 241.738281 300.25 240.773438 300.597656 239.894531 C 301.375 237.914062 301.953125 235.890625 302.148438 233.769531 C 302.222656 232.976562 302.546875 232.191406 301.839844 231.488281 C 301.699219 231.34375 301.769531 230.933594 301.824219 230.65625 C 302.207031 228.878906 302.554688 227.097656 303.023438 225.347656 C 303.511719 223.507812 304.082031 221.691406 304.703125 219.902344 C 304.882812 219.378906 305.335938 218.945312 305.660156 218.46875 C 305.738281 218.53125 305.8125 218.632812 305.898438 218.65625 C 306.976562 218.894531 308.085938 219.03125 309.125 219.378906 C 310.527344 219.839844 311.625 219.125 311.53125 217.644531 C 311.5 217.105469 311.375 216.582031 311.285156 216.042969 C 311.375 215.695312 311.453125 215.324219 311.5625 214.957031 C 312.023438 213.492188 311.113281 211.980469 311.730469 210.511719 C 312.164062 209.484375 311.847656 208.269531 312.941406 207.359375 C 313.8125 206.628906 314.605469 205.601562 314.78125 204.316406 C 314.828125 203.945312 314.882812 203.546875 315.035156 203.207031 C 315.699219 201.71875 316.476562 200.265625 317.070312 198.746094 C 317.472656 197.722656 318.148438 197.050781 318.957031 196.359375 C 320.542969 195.023438 322.007812 193.546875 322.792969 191.542969 C 322.996094 191.019531 323.21875 190.511719 323.441406 190 C 323.679688 189.445312 324.136719 188.882812 324.097656 188.351562 C 324.019531 187.226562 323.804688 186.058594 323.402344 185.015625 C 322.824219 183.5 322.785156 182.066406 323.320312 180.570312 C 323.480469 180.125 323.519531 179.632812 323.582031 179.332031 C 324.828125 177.84375 325.859375 176.363281 325.753906 174.523438 C 325.691406 173.296875 325.136719 172.097656 324.78125 170.839844 C 325.175781 170.441406 324.796875 169.863281 324.574219 169.375 C 324.3125 168.792969 323.773438 168.335938 323.582031 167.75 C 323.203125 166.574219 322.648438 165.664062 321.285156 165.410156 C 321.230469 165.5625 321.160156 165.769531 321.070312 166.011719 C 320.105469 165.523438 320.460938 164.414062 319.953125 163.882812 C 319.398438 163.296875 318.527344 163.003906 317.839844 162.605469 C 318.019531 162.351562 318.210938 162.082031 318.535156 161.632812 C 318.046875 161.632812 317.785156 161.648438 317.523438 161.632812 C 317.117188 161.601562 316.601562 161.695312 316.324219 161.480469 C 315.289062 160.6875 314.226562 159.886719 313.371094 158.914062 C 312.734375 158.191406 312.132812 157.957031 311.261719 158.191406 C 309.226562 156.511719 307.949219 156.910156 306.675781 158.652344 C 305.84375 159.207031 305.152344 159.667969 304.519531 160.09375 C 302.894531 159.652344 301.667969 159 300.683594 157.511719 C 299.488281 155.703125 299.433594 154.050781 299.921875 152.117188 C 300.183594 151.09375 300.359375 150 300.320312 148.953125 C 300.273438 147.71875 299.90625 146.503906 299.734375 145.269531 C 299.449219 143.273438 299.351562 141.234375 298.878906 139.296875 C 298.417969 137.394531 297.640625 135.554688 296.898438 133.726562 C 296.246094 132.125 295.460938 130.578125 294.734375 129.011719 C 294.074219 127.574219 293.457031 126.125 292.761719 124.714844 C 291.898438 122.964844 290.683594 121.46875 289.394531 120.007812 C 288.234375 118.703125 287.253906 117.234375 286.128906 115.898438 C 284.242188 113.652344 281.96875 112 278.941406 111.808594 C 276.460938 111.648438 273.964844 111.671875 271.476562 111.617188 C 271.058594 111.609375 270.644531 111.5625 270.234375 111.5625 C 269.742188 111.5625 269.242188 111.570312 268.753906 111.609375 C 268.054688 111.664062 267.359375 111.792969 266.660156 111.816406 C 265.742188 111.855469 264.828125 111.824219 263.910156 111.824219 C 263.5625 111.59375 263.191406 111.484375 262.816406 111.46875 C 262.445312 111.453125 262.023438 111.65625 261.691406 111.554688 C 259.871094 110.96875 258.601562 111.785156 257.382812 113.011719 C 256.652344 113.75 255.828125 114.5 254.894531 114.882812 C 253.554688 115.429688 252.082031 115.644531 250.804688 115.960938 C 248.117188 115.761719 247.097656 114.34375 247.675781 111.847656 C 247.335938 111.886719 247.175781 111.902344 247.199219 111.902344 C 247.246094 111.386719 247.351562 110.914062 247.335938 110.4375 C 247.292969 109.191406 247.167969 107.949219 247.136719 106.707031 C 247.089844 104.929688 246.953125 103.25 245.535156 101.886719 C 243.808594 100.214844 242.050781 98.441406 239.863281 97.570312 C 237.253906 96.523438 234.417969 95.9375 231.628906 95.484375 C 229.996094 95.222656 228.253906 95.613281 226.441406 95.722656 C 225.324219 94.375 224.777344 94.105469 224.261719 94.707031 C 223.992188 94.472656 223.722656 94.242188 223.601562 94.136719 C 221.472656 95.011719 219.878906 96.277344 218.976562 97.757812 C 215.625 99.195312 212.429688 100.152344 210.347656 103.019531 C 210.625 103.25 210.878906 103.457031 211.351562 103.84375 C 210.78125 103.757812 210.503906 103.710938 210.355469 103.6875 C 209.132812 105.9375 207.960938 108.082031 206.796875 110.230469 C 206.742188 110.429688 206.457031 110.546875 206.378906 110.738281 C 205.972656 111.792969 205.386719 112.847656 205.292969 113.9375 C 205.046875 116.910156 204.902344 119.882812 204.886719 122.835938 Z M 195.824219 142.363281 C 194.945312 143.472656 194.160156 144.628906 192.84375 145.378906 C 191.601562 146.101562 190.300781 146.917969 189.894531 148.503906 C 189.445312 150.292969 188.984375 152.089844 188.5 153.875 C 188.414062 154.183594 188.160156 154.445312 187.921875 154.824219 C 188.035156 155.0625 188.214844 155.460938 188.398438 155.855469 C 188.304688 155.847656 188.207031 155.839844 188.113281 155.832031 C 187.914062 156.542969 187.726562 157.25 187.480469 158.144531 C 189.144531 158.035156 190.554688 157.765625 191.933594 157.890625 C 193.320312 158.019531 194.683594 158.527344 196.433594 158.96875 C 197.960938 159.546875 199.910156 160.03125 201.949219 160.277344 C 204.285156 160.554688 205.839844 159.160156 207.351562 157.890625 C 209.453125 157.734375 212.820312 155.070312 212.382812 153.296875 C 212.636719 152.582031 212.804688 151.855469 212.914062 151.109375 C 213.300781 148.644531 212.476562 146.59375 210.664062 144.953125 C 208.539062 143.027344 205.933594 142.78125 203.230469 143.035156 C 201.925781 143.152344 200.832031 142.742188 199.855469 141.910156 C 199.253906 141.394531 198.667969 140.863281 198.066406 140.339844 C 197.882812 140.285156 197.699219 140.230469 197.511719 140.175781 C 196.957031 140.894531 196.402344 141.640625 195.824219 142.363281 Z M 39.234375 162.472656 C 38.949219 164.015625 38.625 165.5625 38.332031 167.113281 C 38.800781 165.378906 39.269531 163.636719 39.75 161.855469 C 39.585938 161.933594 39.410156 162.164062 39.234375 162.472656 Z M 55.945312 115.714844 C 55.8125 115.570312 55.683594 115.4375 55.566406 115.308594 C 54.324219 117.878906 53.085938 120.445312 51.859375 123.011719 C 53.078125 120.871094 54.324219 118.75 55.550781 116.617188 C 55.710938 116.316406 55.828125 115.984375 55.945312 115.714844 Z M 114.066406 167.050781 C 114.050781 167.1875 114.035156 167.34375 114.003906 167.503906 C 113.605469 169.191406 113.101562 170.871094 112.839844 172.582031 C 112.664062 173.714844 112.972656 174.878906 113.882812 175.703125 C 114.144531 175.941406 114.613281 176.019531 114.976562 176.011719 C 115.105469 176.003906 115.207031 175.488281 115.230469 175.441406 C 116 174.722656 116.769531 174.207031 117.253906 173.5 C 117.949219 172.480469 118.441406 171.324219 119.027344 170.207031 C 119.296875 170.71875 119.480469 171.070312 119.652344 171.417969 C 119.796875 171.417969 119.9375 171.417969 120.082031 171.417969 C 120.414062 170.371094 120.753906 169.324219 121.101562 168.246094 C 122.355469 167.921875 123.65625 167.519531 124.128906 166.132812 C 124.488281 165.09375 124.597656 163.96875 124.875 162.898438 C 125.167969 161.765625 125.53125 160.648438 125.863281 159.523438 C 125.953125 159.570312 126.039062 159.621094 126.125 159.667969 C 126.679688 159.609375 127.242188 159.554688 127.703125 159.515625 C 127.972656 159.191406 128.15625 158.96875 128.351562 158.722656 C 130.046875 158.722656 131.730469 158.722656 133.382812 158.722656 C 133.574219 157.710938 133.257812 157.359375 131.324219 156.332031 C 131.125 154.777344 130.753906 154.4375 129.421875 154.675781 C 127.535156 153.621094 125.824219 152.375 123.71875 151.863281 C 122.226562 151.496094 121.183594 151.804688 120.421875 153.144531 C 120.285156 153.382812 120.089844 153.683594 119.867188 153.746094 C 118.21875 154.175781 116.5625 154.546875 114.960938 154.921875 C 114.113281 153.984375 113.417969 153.21875 112.980469 152.734375 C 112.695312 151.378906 112.472656 150.355469 112.253906 149.285156 C 112 149.300781 111.816406 149.308594 111.609375 149.328125 C 111.578125 149.539062 111.5625 149.730469 111.523438 149.921875 C 111.484375 150.101562 111.429688 150.285156 111.371094 150.46875 C 111.09375 150.484375 110.851562 150.507812 110.589844 150.523438 C 110.152344 155.070312 112.695312 158.542969 114.667969 162.171875 C 112.6875 163.96875 112.410156 165.347656 114.066406 167.050781 Z M 82.640625 170.484375 C 82.371094 170.417969 82.214844 170.347656 82.054688 170.355469 C 81.90625 170.363281 81.753906 170.457031 81.621094 170.507812 C 81.375 171.035156 81.097656 171.433594 81 171.878906 C 80.519531 174.136719 80.476562 176.417969 80.960938 178.683594 C 81.214844 179.863281 82.371094 180.417969 83.519531 180.039062 C 84.890625 179.585938 86.515625 177.898438 86.214844 175.625 C 85.160156 174.113281 83.878906 172.265625 82.640625 170.484375 Z M 143.203125 131.933594 C 143.960938 131.1875 144.691406 130.414062 145.554688 129.523438 C 145.878906 128.457031 145.816406 128.171875 145.113281 127.820312 C 144.105469 127.324219 143.449219 127.480469 142.742188 128.414062 C 141.910156 129.515625 141.078125 130.617188 140.277344 131.734375 C 140.136719 131.933594 140.152344 132.25 140.097656 132.464844 C 140.953125 132.988281 142.417969 132.710938 143.203125 131.933594 Z M 67.960938 145.910156 C 68.371094 146.648438 68.695312 147.386719 69.171875 148.011719 C 69.566406 148.527344 70.105469 148.953125 70.652344 149.308594 C 71.515625 149.875 72.476562 150.300781 73.332031 150.878906 C 74.25 151.496094 75.066406 152.265625 75.976562 152.898438 C 76.507812 153.273438 77.332031 153.359375 77.699219 153.828125 C 78.804688 155.261719 80.082031 156.363281 82.175781 156.710938 C 82.355469 155.746094 82.722656 154.753906 82.703125 153.761719 C 82.65625 150.800781 82.5625 147.84375 83.269531 145.707031 C 84.621094 143.765625 85.558594 142.425781 86.460938 141.125 C 86.460938 137.328125 85.8125 135.871094 83.847656 135.175781 C 83.632812 135.347656 83.425781 135.53125 83.21875 135.714844 C 83.316406 135.785156 83.417969 135.855469 83.511719 135.925781 C 84.109375 136.101562 84.582031 136.339844 84.210938 137.296875 C 83.847656 136.832031 83.570312 136.472656 83.292969 136.117188 C 83.203125 136.039062 83.117188 135.960938 83.03125 135.886719 C 82.777344 136.101562 82.515625 136.308594 82.230469 136.472656 C 81.898438 136.671875 81.335938 136.765625 81.007812 136.617188 C 80.753906 136.496094 80.628906 135.933594 80.605469 135.5625 C 80.582031 135.238281 80.789062 134.898438 80.859375 134.558594 C 80.929688 134.214844 80.953125 133.867188 80.992188 133.527344 C 80.890625 133.566406 80.789062 133.597656 80.683594 133.636719 C 80.003906 132.988281 79.226562 132.410156 78.671875 131.671875 C 77.738281 130.429688 76.976562 129.058594 76.082031 127.773438 C 75.589844 127.070312 75.644531 126.371094 75.828125 125.601562 C 75.976562 124.953125 76.027344 124.28125 76.113281 123.613281 C 76.066406 123.589844 76.015625 123.566406 75.960938 123.550781 C 75.589844 124.265625 75.21875 124.984375 74.851562 125.675781 C 74.558594 125.585938 74.457031 125.570312 74.378906 125.523438 C 72.523438 124.304688 71.320312 124.5 70.25 126.425781 C 69.042969 128.605469 68.195312 130.945312 67.570312 133.367188 C 67.324219 134.320312 67.476562 135.046875 68.085938 135.746094 C 68.757812 136.515625 68.886719 137.335938 68.332031 138.226562 C 68.078125 138.628906 67.832031 139.050781 67.53125 139.414062 C 66.859375 140.214844 66.851562 140.722656 67.570312 141.402344 C 67.300781 141.863281 67.03125 142.320312 66.808594 142.703125 C 67.222656 143.84375 67.601562 144.914062 67.960938 145.910156 Z M 141.15625 210.511719 C 141.671875 210.308594 142.0625 209.777344 142.535156 209.355469 C 143.683594 211.234375 146.457031 212.398438 147.695312 211.675781 C 147.324219 209.957031 146.726562 208.40625 145.0625 207.4375 C 144.113281 206.882812 143.289062 206.140625 142.871094 205.023438 C 142.6875 204.546875 142.226562 204.183594 141.894531 203.769531 C 141.769531 203.792969 141.648438 203.808594 141.523438 203.832031 C 140.707031 205.664062 139.867188 207.484375 139.097656 209.339844 C 138.980469 209.625 139.214844 210.0625 139.34375 210.65625 C 139.984375 210.625 140.636719 210.726562 141.15625 210.511719 Z M 92.046875 71.886719 C 92.0625 71.878906 92.054688 71.878906 92.046875 71.886719 Z M 91.992188 71.929688 C 92.117188 71.929688 92.070312 71.929688 91.992188 71.929688 Z M 91.992188 71.929688 C 91.976562 71.929688 91.96875 71.929688 91.953125 71.929688 C 91.953125 71.9375 91.945312 71.945312 91.945312 71.953125 C 91.953125 71.953125 91.960938 71.953125 91.96875 71.953125 C 91.976562 71.9375 91.984375 71.9375 91.992188 71.929688 Z M 111.085938 251.960938 C 111.078125 251.945312 111.078125 251.945312 111.085938 251.960938 Z M 83.292969 136.125 C 83.570312 136.480469 83.847656 136.839844 84.210938 137.304688 C 84.582031 136.347656 84.109375 136.101562 83.511719 135.933594 C 83.441406 136 83.363281 136.0625 83.292969 136.125 Z M 83.511719 135.933594 C 83.417969 135.863281 83.316406 135.792969 83.21875 135.722656 C 83.15625 135.777344 83.085938 135.832031 83.023438 135.894531 C 83.109375 135.976562 83.195312 136.054688 83.285156 136.125 C 83.363281 136.0625 83.441406 136 83.511719 135.933594 Z M 83.125 135.640625 C 83.078125 135.714844 83.03125 135.777344 82.972656 135.847656 C 82.992188 135.863281 83.007812 135.878906 83.023438 135.894531 C 83.085938 135.839844 83.15625 135.785156 83.21875 135.722656 C 83.1875 135.699219 83.15625 135.664062 83.125 135.640625 Z M 83.511719 135.933594 C 83.433594 136 83.363281 136.0625 83.285156 136.125 C 83.363281 136.0625 83.441406 136 83.511719 135.933594 Z M 83.511719 135.933594 " fill-opacity="1" fill-rule="nonzero"/></g><g clip-path="url(#a3f2c12522)"><path fill="#171539" d="M 353.042969 254.011719 C 353.042969 271.519531 338.914062 285.699219 321.476562 285.699219 L 195.191406 285.699219 C 169.046875 285.699219 147.816406 264.429688 147.816406 238.1875 C 147.816406 211.914062 169.046875 190.644531 195.191406 190.644531 C 197.921875 190.644531 200.617188 190.882812 203.246094 191.328125 C 214.0625 172.007812 234.679688 158.957031 258.332031 158.957031 C 293.214844 158.957031 321.476562 187.316406 321.476562 222.328125 C 338.914062 222.328125 353.042969 236.511719 353.042969 254.011719 " fill-opacity="1" fill-rule="nonzero"/></g></svg>