<svg xmlns="http://www.w3.org/2000/svg" xmlns:xlink="http://www.w3.org/1999/xlink" width="500" zoomAndPan="magnify" viewBox="0 0 375 374.999991" height="500" preserveAspectRatio="xMidYMid meet" version="1.0"><defs><clipPath id="c3e96f6e8c"><path d="M 104 306 L 271 306 L 271 317.011719 L 104 317.011719 Z M 104 306 " clip-rule="nonzero"/></clipPath><clipPath id="0fb0b1af7f"><path d="M 32.257812 58.261719 L 342.757812 58.261719 L 342.757812 255 L 32.257812 255 Z M 32.257812 58.261719 " clip-rule="nonzero"/></clipPath><clipPath id="b635b346e4"><path d="M 104.804688 63.0625 L 217.304688 63.0625 L 217.304688 175.5625 L 104.804688 175.5625 Z M 104.804688 63.0625 " clip-rule="nonzero"/></clipPath><clipPath id="8679890d01"><path d="M 161.054688 63.0625 C 129.988281 63.0625 104.804688 88.246094 104.804688 119.3125 C 104.804688 150.378906 129.988281 175.5625 161.054688 175.5625 C 192.121094 175.5625 217.304688 150.378906 217.304688 119.3125 C 217.304688 88.246094 192.121094 63.0625 161.054688 63.0625 " clip-rule="nonzero"/></clipPath></defs><g clip-path="url(#c3e96f6e8c)"><path fill="#e1dddb" d="M 265.054688 306.660156 L 109.960938 306.660156 C 107.101562 306.660156 104.789062 308.972656 104.789062 311.835938 C 104.789062 314.695312 107.101562 317.011719 109.960938 317.011719 L 265.054688 317.011719 C 267.910156 317.011719 270.222656 314.695312 270.222656 311.835938 C 270.222656 308.972656 267.910156 306.660156 265.054688 306.660156 " fill-opacity="1" fill-rule="nonzero"/></g><path fill="#e1dddb" d="M 265.054688 265.261719 L 109.960938 265.261719 C 107.101562 265.261719 104.789062 267.574219 104.789062 270.433594 C 104.789062 273.296875 107.101562 275.609375 109.960938 275.609375 L 265.054688 275.609375 C 267.910156 275.609375 270.222656 273.296875 270.222656 270.433594 C 270.222656 267.574219 267.910156 265.261719 265.054688 265.261719 " fill-opacity="1" fill-rule="nonzero"/><path fill="#e1dddb" d="M 234.035156 296.308594 C 236.890625 296.308594 239.203125 293.996094 239.203125 291.136719 C 239.203125 288.273438 236.890625 285.960938 234.035156 285.960938 L 140.980469 285.960938 C 138.121094 285.960938 135.808594 288.273438 135.808594 291.136719 C 135.808594 293.996094 138.121094 296.308594 140.980469 296.308594 L 234.035156 296.308594 " fill-opacity="1" fill-rule="nonzero"/><g clip-path="url(#0fb0b1af7f)"><path fill="#e1dddb" d="M 265.054688 234.210938 L 109.960938 234.210938 C 107.101562 234.210938 104.789062 231.894531 104.789062 229.035156 C 104.789062 226.175781 107.101562 223.859375 109.960938 223.859375 L 265.054688 223.859375 C 267.910156 223.859375 270.222656 226.175781 270.222656 229.035156 C 270.222656 231.894531 267.910156 234.210938 265.054688 234.210938 Z M 161.65625 78.960938 C 164.515625 78.960938 166.828125 81.273438 166.828125 84.136719 C 166.828125 86.996094 164.515625 89.308594 161.65625 89.308594 C 141.707031 89.308594 125.46875 105.5625 125.46875 125.535156 C 125.46875 128.394531 123.15625 130.710938 120.300781 130.710938 C 117.441406 130.710938 115.128906 128.394531 115.128906 125.535156 C 115.128906 99.851562 136 78.960938 161.65625 78.960938 Z M 234.035156 203.160156 C 236.890625 203.160156 239.203125 205.472656 239.203125 208.335938 C 239.203125 211.195312 236.890625 213.511719 234.035156 213.511719 L 140.980469 213.511719 C 138.121094 213.511719 135.808594 211.195312 135.808594 208.335938 C 135.808594 205.472656 138.121094 203.160156 140.980469 203.160156 Z M 299.46875 142.828125 C 293.230469 117.621094 270.589844 99.660156 244.375 99.660156 C 237.820312 99.660156 231.328125 100.851562 225.007812 103.226562 C 215.648438 76.472656 190.398438 58.261719 161.65625 58.261719 C 126.277344 58.261719 97.191406 85.773438 94.632812 120.542969 C 59.894531 123.109375 32.414062 152.21875 32.414062 187.636719 C 32.414062 224.730469 62.5625 254.910156 99.621094 254.910156 L 285.730469 254.910156 C 317.089844 254.910156 342.597656 229.367188 342.597656 197.984375 C 342.597656 171.734375 324.660156 149.074219 299.46875 142.828125 " fill-opacity="1" fill-rule="nonzero"/></g><g clip-path="url(#b635b346e4)"><g clip-path="url(#8679890d01)"><path fill="#e1dddb" d="M 104.804688 63.0625 L 217.304688 63.0625 L 217.304688 175.5625 L 104.804688 175.5625 Z M 104.804688 63.0625 " fill-opacity="1" fill-rule="nonzero"/></g></g></svg>