<svg xmlns="http://www.w3.org/2000/svg" xmlns:xlink="http://www.w3.org/1999/xlink" width="500" zoomAndPan="magnify" viewBox="0 0 375 374.999991" height="500" preserveAspectRatio="xMidYMid meet" version="1.0"><defs><clipPath id="b91a061555"><path d="M 70.371094 64 L 304.371094 64 L 304.371094 195 L 70.371094 195 Z M 70.371094 64 " clip-rule="nonzero"/></clipPath></defs><g clip-path="url(#b91a061555)"><path fill="#e1dddb" d="M 252.371094 90.375 C 247.011719 90.375 241.84375 91.1875 236.972656 92.695312 C 231.207031 76.21875 215.570312 64.375 197.121094 64.375 C 177.335938 64.375 160.773438 78 156.179688 96.359375 C 151.277344 92.65625 145.246094 90.375 138.621094 90.375 C 122.46875 90.375 109.371094 103.472656 109.371094 119.625 C 109.371094 123.550781 110.171875 127.28125 111.578125 130.699219 C 108.789062 129.925781 105.90625 129.375 102.871094 129.375 C 84.917969 129.375 70.371094 143.921875 70.371094 161.875 C 70.371094 179.828125 84.917969 194.375 102.871094 194.375 L 252.371094 194.375 C 281.089844 194.375 304.371094 171.097656 304.371094 142.375 C 304.371094 113.65625 281.089844 90.375 252.371094 90.375 Z M 252.371094 90.375 " fill-opacity="1" fill-rule="nonzero"/></g><path fill="#171539" d="M 148.367188 226.621094 L 147.632812 204.382812 L 128.976562 215.488281 C 124.828125 217.730469 122.074219 222.144531 122.242188 227.179688 C 122.484375 234.351562 128.523438 240.023438 135.738281 239.875 C 142.945312 239.726562 148.605469 233.785156 148.367188 226.621094 Z M 135.503906 275.109375 L 134.769531 252.875 L 116.113281 263.976562 C 111.964844 266.21875 109.210938 270.632812 109.378906 275.671875 C 109.621094 282.839844 115.65625 288.515625 122.875 288.363281 C 130.089844 288.214844 135.742188 282.273438 135.503906 275.109375 Z M 103.003906 246.121094 L 102.269531 223.882812 L 83.613281 234.988281 C 79.464844 237.230469 76.710938 241.644531 76.878906 246.679688 C 77.121094 253.84375 83.15625 259.519531 90.375 259.375 C 97.589844 259.226562 103.242188 253.285156 103.003906 246.121094 Z M 220.003906 226.621094 L 219.269531 204.382812 L 200.621094 215.488281 C 196.464844 217.730469 193.714844 222.144531 193.886719 227.179688 C 194.125 234.351562 200.164062 240.023438 207.378906 239.875 C 214.589844 239.726562 220.242188 233.785156 220.003906 226.621094 Z M 180.867188 252.621094 L 180.132812 230.382812 L 161.484375 241.488281 C 157.328125 243.730469 154.582031 248.144531 154.75 253.179688 C 154.988281 260.351562 161.027344 266.023438 168.242188 265.875 C 175.453125 265.726562 181.105469 259.785156 180.867188 252.621094 Z M 213.503906 281.609375 L 212.761719 259.375 L 194.113281 270.476562 C 189.960938 272.71875 187.210938 277.132812 187.378906 282.171875 C 187.621094 289.339844 193.65625 295.015625 200.875 294.863281 C 208.089844 294.714844 213.742188 288.773438 213.503906 281.609375 Z M 258.867188 246.121094 L 258.132812 223.882812 L 239.484375 234.988281 C 235.328125 237.230469 232.582031 241.644531 232.75 246.679688 C 232.988281 253.851562 239.027344 259.523438 246.242188 259.375 C 253.453125 259.226562 259.105469 253.285156 258.867188 246.121094 Z M 258.867188 246.121094 " fill-opacity="1" fill-rule="nonzero"/></svg>