<svg xmlns="http://www.w3.org/2000/svg" xmlns:xlink="http://www.w3.org/1999/xlink" width="500" zoomAndPan="magnify" viewBox="0 0 375 374.999991" height="500" preserveAspectRatio="xMidYMid meet" version="1.0"><defs><clipPath id="a2d7d2e84b"><path d="M 71.792969 75.101562 L 332.75 75.101562 L 332.75 235.902344 L 71.792969 235.902344 Z M 71.792969 75.101562 " clip-rule="nonzero"/></clipPath><clipPath id="2554c1ac0b"><path d="M 42.273438 125.101562 L 303.230469 125.101562 L 303.230469 285.902344 L 42.273438 285.902344 Z M 42.273438 125.101562 " clip-rule="nonzero"/></clipPath></defs><g clip-path="url(#a2d7d2e84b)"><path fill="#e1dddb" d="M 332.75 195.699219 C 332.75 217.910156 314.78125 235.902344 292.605469 235.902344 L 132.03125 235.902344 C 98.785156 235.902344 71.792969 208.914062 71.792969 175.621094 C 71.792969 142.289062 98.785156 115.300781 132.03125 115.300781 C 135.5 115.300781 138.929688 115.605469 142.269531 116.171875 C 156.027344 91.660156 182.242188 75.097656 212.316406 75.097656 C 256.671875 75.097656 292.605469 111.082031 292.605469 155.503906 C 314.78125 155.503906 332.75 173.492188 332.75 195.699219 " fill-opacity="1" fill-rule="nonzero"/></g><g clip-path="url(#2554c1ac0b)"><path fill="#171539" d="M 303.230469 245.699219 C 303.230469 267.910156 285.261719 285.902344 263.089844 285.902344 L 102.511719 285.902344 C 69.265625 285.902344 42.273438 258.914062 42.273438 225.621094 C 42.273438 192.289062 69.265625 165.300781 102.511719 165.300781 C 105.980469 165.300781 109.410156 165.605469 112.75 166.171875 C 126.507812 141.660156 152.722656 125.097656 182.796875 125.097656 C 227.152344 125.097656 263.089844 161.082031 263.089844 205.503906 C 285.261719 205.503906 303.230469 223.496094 303.230469 245.699219 " fill-opacity="1" fill-rule="nonzero"/></g></svg>