<svg xmlns="http://www.w3.org/2000/svg" xmlns:xlink="http://www.w3.org/1999/xlink" width="500" zoomAndPan="magnify" viewBox="0 0 375 374.999991" height="500" preserveAspectRatio="xMidYMid meet" version="1.0"><defs><clipPath id="bd3f4bdc39"><path d="M 56.25 73.640625 L 318.75 73.640625 L 318.75 226 L 56.25 226 Z M 56.25 73.640625 " clip-rule="nonzero"/></clipPath><clipPath id="8ad00776bc"><path d="M 69 245 L 112 245 L 112 301.640625 L 69 301.640625 Z M 69 245 " clip-rule="nonzero"/></clipPath><clipPath id="cf707fa1ff"><path d="M 111 245 L 153 245 L 153 301.640625 L 111 301.640625 Z M 111 245 " clip-rule="nonzero"/></clipPath><clipPath id="70f705fdcb"><path d="M 152 245 L 195 245 L 195 301.640625 L 152 301.640625 Z M 152 245 " clip-rule="nonzero"/></clipPath><clipPath id="5fb6f1a482"><path d="M 193 245 L 236 245 L 236 301.640625 L 193 301.640625 Z M 193 245 " clip-rule="nonzero"/></clipPath><clipPath id="a45c892fac"><path d="M 235 245 L 277 245 L 277 301.640625 L 235 301.640625 Z M 235 245 " clip-rule="nonzero"/></clipPath></defs><g clip-path="url(#bd3f4bdc39)"><path fill="#e1dddb" d="M 263.40625 115.09375 C 257.195312 115.09375 250.984375 116.476562 244.773438 118.550781 C 235.113281 92.296875 210.273438 73.640625 180.597656 73.640625 C 142.644531 73.640625 111.59375 104.730469 111.59375 142.730469 C 111.59375 143.421875 111.59375 144.113281 111.59375 145.496094 C 107.453125 144.113281 102.621094 142.730469 97.792969 142.730469 C 75.019531 142.730469 56.390625 161.386719 56.390625 184.1875 C 56.390625 206.984375 75.019531 225.640625 97.792969 225.640625 L 263.40625 225.640625 C 293.769531 225.640625 318.609375 200.769531 318.609375 170.367188 C 318.609375 139.96875 293.769531 115.09375 263.40625 115.09375 Z M 263.40625 115.09375 " fill-opacity="1" fill-rule="nonzero"/></g><g clip-path="url(#8ad00776bc)"><path fill="#e1dddb" d="M 77.089844 301.640625 C 75.710938 301.640625 74.332031 300.949219 72.949219 300.257812 C 69.5 298.1875 68.808594 294.039062 70.878906 290.585938 L 98.484375 249.132812 C 100.554688 245.675781 104.691406 244.984375 108.144531 247.058594 C 111.59375 249.132812 112.285156 253.277344 110.214844 256.730469 L 82.613281 298.1875 C 81.230469 300.257812 79.160156 301.640625 77.089844 301.640625 Z M 77.089844 301.640625 " fill-opacity="1" fill-rule="nonzero"/></g><g clip-path="url(#cf707fa1ff)"><path fill="#e1dddb" d="M 118.496094 301.640625 C 117.113281 301.640625 115.734375 300.949219 114.355469 300.257812 C 110.902344 298.1875 110.214844 294.039062 112.285156 290.585938 L 139.886719 249.132812 C 141.957031 245.675781 146.097656 244.984375 149.546875 247.058594 C 152.996094 249.132812 153.6875 253.277344 151.617188 256.730469 L 124.015625 298.1875 C 122.632812 300.257812 120.566406 301.640625 118.496094 301.640625 Z M 118.496094 301.640625 " fill-opacity="1" fill-rule="nonzero"/></g><g clip-path="url(#70f705fdcb)"><path fill="#e1dddb" d="M 159.898438 301.640625 C 158.519531 301.640625 157.136719 300.949219 155.757812 300.257812 C 152.308594 298.1875 151.617188 294.039062 153.6875 290.585938 L 181.289062 249.132812 C 183.359375 245.675781 187.5 244.984375 190.949219 247.058594 C 194.402344 249.132812 195.089844 253.277344 193.019531 256.730469 L 165.417969 298.1875 C 164.039062 300.257812 161.96875 301.640625 159.898438 301.640625 Z M 159.898438 301.640625 " fill-opacity="1" fill-rule="nonzero"/></g><g clip-path="url(#5fb6f1a482)"><path fill="#e1dddb" d="M 201.300781 301.640625 C 199.921875 301.640625 198.539062 300.949219 197.160156 300.257812 C 193.710938 298.1875 193.019531 294.039062 195.089844 290.585938 L 222.691406 249.132812 C 224.761719 245.675781 228.902344 244.984375 232.355469 247.058594 C 235.804688 249.132812 236.492188 253.277344 234.425781 256.730469 L 206.820312 298.1875 C 205.441406 300.257812 203.371094 301.640625 201.300781 301.640625 Z M 201.300781 301.640625 " fill-opacity="1" fill-rule="nonzero"/></g><g clip-path="url(#a45c892fac)"><path fill="#e1dddb" d="M 242.703125 301.640625 C 241.324219 301.640625 239.945312 300.949219 238.5625 300.257812 C 235.113281 298.1875 234.425781 294.039062 236.492188 290.585938 L 264.097656 249.132812 C 266.167969 245.675781 270.308594 244.984375 273.757812 247.058594 C 277.207031 249.132812 277.898438 253.277344 275.828125 256.730469 L 248.226562 298.1875 C 246.84375 300.257812 244.773438 301.640625 242.703125 301.640625 Z M 242.703125 301.640625 " fill-opacity="1" fill-rule="nonzero"/></g></svg>