<svg xmlns="http://www.w3.org/2000/svg" xmlns:xlink="http://www.w3.org/1999/xlink" width="500" zoomAndPan="magnify" viewBox="0 0 375 374.999991" height="500" preserveAspectRatio="xMidYMid meet" version="1.0"><defs><clipPath id="00997deafa"><path d="M 139 255.882812 L 154 255.882812 L 154 297.882812 L 139 297.882812 Z M 139 255.882812 " clip-rule="nonzero"/></clipPath><clipPath id="dc21d3297a"><path d="M 127 261 L 166.59375 261 L 166.59375 293 L 127 293 Z M 127 261 " clip-rule="nonzero"/></clipPath><clipPath id="e461882554"><path d="M 56.96875 52.226562 L 318.363281 52.226562 L 318.363281 212.714844 L 56.96875 212.714844 Z M 56.96875 52.226562 " clip-rule="nonzero"/></clipPath><clipPath id="bcc5d49034"><path d="M 196 221.109375 L 224 221.109375 L 224 302.109375 L 196 302.109375 Z M 196 221.109375 " clip-rule="nonzero"/></clipPath><clipPath id="b3a86f8ee3"><path d="M 152 226.167969 L 160 226.167969 L 160 247.917969 L 152 247.917969 Z M 152 226.167969 " clip-rule="nonzero"/></clipPath></defs><g clip-path="url(#00997deafa)"><path fill="#171539" d="M 147.886719 288.066406 L 147.886719 265.699219 L 153.527344 260.066406 C 153.527344 260.066406 154.355469 259.238281 153.527344 258.414062 C 152.703125 257.589844 151.875 258.414062 151.875 258.414062 L 147.886719 262.398438 L 147.886719 257.046875 C 147.886719 257.046875 147.886719 255.882812 146.71875 255.882812 C 145.550781 255.882812 145.550781 257.046875 145.550781 257.046875 L 145.550781 262.398438 L 141.5625 258.414062 C 141.5625 258.414062 140.734375 257.589844 139.910156 258.414062 C 139.082031 259.238281 139.910156 260.066406 139.910156 260.066406 L 145.550781 265.699219 L 145.550781 288.066406 L 139.910156 293.699219 C 139.910156 293.699219 139.082031 294.523438 139.910156 295.347656 C 140.734375 296.171875 141.5625 295.347656 141.5625 295.347656 L 145.550781 291.363281 L 145.550781 296.714844 C 145.550781 296.714844 145.550781 297.882812 146.71875 297.882812 C 147.886719 297.882812 147.886719 296.714844 147.886719 296.714844 L 147.886719 291.363281 L 151.875 295.347656 C 151.875 295.347656 152.703125 296.171875 153.527344 295.347656 C 154.355469 294.523438 153.527344 293.699219 153.527344 293.699219 Z M 147.886719 288.066406 " fill-opacity="1" fill-rule="nonzero"/></g><g clip-path="url(#dc21d3297a)"><path fill="#171539" d="M 166.140625 280.226562 C 165.835938 279.097656 164.707031 279.398438 164.707031 279.398438 L 157.003906 281.460938 L 137.601562 270.277344 L 135.539062 262.582031 C 135.539062 262.582031 135.234375 261.457031 134.105469 261.757812 C 132.976562 262.0625 133.28125 263.1875 133.28125 263.1875 L 134.742188 268.628906 L 130.101562 265.953125 C 130.101562 265.953125 129.089844 265.371094 128.503906 266.378906 C 127.921875 267.390625 128.933594 267.972656 128.933594 267.972656 L 133.570312 270.648438 L 128.121094 272.105469 C 128.121094 272.105469 126.992188 272.40625 127.296875 273.535156 C 127.597656 274.664062 128.726562 274.359375 128.726562 274.359375 L 136.433594 272.300781 L 155.835938 283.484375 L 157.898438 291.179688 C 157.898438 291.179688 158.203125 292.304688 159.332031 292.003906 C 160.457031 291.699219 160.15625 290.574219 160.15625 290.574219 L 158.695312 285.132812 L 163.335938 287.808594 C 163.335938 287.808594 164.351562 288.390625 164.933594 287.382812 C 165.519531 286.371094 164.503906 285.789062 164.503906 285.789062 L 159.863281 283.113281 L 165.3125 281.65625 C 165.3125 281.652344 166.441406 281.351562 166.140625 280.226562 Z M 166.140625 280.226562 " fill-opacity="1" fill-rule="nonzero"/><path fill="#171539" d="M 165.3125 272.105469 L 159.863281 270.648438 L 164.503906 267.972656 C 164.503906 267.972656 165.519531 267.386719 164.933594 266.378906 C 164.347656 265.367188 163.335938 265.949219 163.335938 265.949219 L 158.695312 268.625 L 160.15625 263.183594 C 160.15625 263.183594 160.457031 262.058594 159.332031 261.753906 C 158.203125 261.453125 157.898438 262.582031 157.898438 262.582031 L 155.835938 270.273438 L 136.433594 281.460938 L 128.730469 279.398438 C 128.730469 279.398438 127.601562 279.097656 127.296875 280.222656 C 126.992188 281.351562 128.125 281.652344 128.125 281.652344 L 133.570312 283.109375 L 128.933594 285.785156 C 128.933594 285.785156 127.921875 286.371094 128.503906 287.378906 C 129.089844 288.390625 130.101562 287.804688 130.101562 287.804688 L 134.742188 285.128906 L 133.28125 290.570312 C 133.28125 290.570312 132.980469 291.699219 134.105469 292 C 135.238281 292.304688 135.539062 291.175781 135.539062 291.175781 L 137.605469 283.480469 L 157.007812 272.296875 L 164.710938 274.359375 C 164.710938 274.359375 165.839844 274.664062 166.144531 273.535156 C 166.441406 272.40625 165.3125 272.105469 165.3125 272.105469 Z M 165.3125 272.105469 " fill-opacity="1" fill-rule="nonzero"/></g><g clip-path="url(#e461882554)"><path fill="#e1dddb" d="M 318.363281 172.589844 C 318.363281 194.757812 300.367188 212.714844 278.15625 212.714844 L 117.308594 212.714844 C 84.007812 212.714844 56.96875 185.777344 56.96875 152.550781 C 56.96875 119.28125 84.007812 92.34375 117.308594 92.34375 C 120.785156 92.34375 124.222656 92.648438 127.566406 93.214844 C 141.347656 68.75 167.605469 52.222656 197.730469 52.222656 C 242.160156 52.222656 278.15625 88.132812 278.15625 132.46875 C 300.367188 132.46875 318.363281 150.425781 318.363281 172.589844 " fill-opacity="1" fill-rule="nonzero"/></g><g clip-path="url(#bcc5d49034)"><path fill="#171539" d="M 212.386719 283.179688 L 212.386719 240.042969 L 223.242188 229.179688 C 223.242188 229.179688 224.832031 227.585938 223.242188 225.992188 C 221.652344 224.402344 220.0625 225.992188 220.0625 225.992188 L 212.386719 233.679688 L 212.386719 223.359375 C 212.386719 223.359375 212.386719 221.109375 210.136719 221.109375 C 207.886719 221.109375 207.886719 223.359375 207.886719 223.359375 L 207.886719 233.679688 L 200.210938 225.992188 C 200.210938 225.992188 198.621094 224.402344 197.03125 225.992188 C 195.441406 227.585938 197.03125 229.179688 197.03125 229.179688 L 207.886719 240.042969 L 207.886719 283.179688 L 197.03125 294.039062 C 197.03125 294.039062 195.441406 295.632812 197.03125 297.222656 C 198.621094 298.8125 200.210938 297.222656 200.210938 297.222656 L 207.886719 289.539062 L 207.886719 299.859375 C 207.886719 299.859375 207.886719 302.109375 210.136719 302.109375 C 212.386719 302.109375 212.386719 299.859375 212.386719 299.859375 L 212.386719 289.539062 L 220.0625 297.222656 C 220.0625 297.222656 221.652344 298.8125 223.242188 297.222656 C 224.832031 295.632812 223.242188 294.039062 223.242188 294.039062 Z M 212.386719 283.179688 " fill-opacity="1" fill-rule="nonzero"/></g><path fill="#171539" d="M 247.515625 268.058594 C 246.933594 265.882812 244.761719 266.46875 244.761719 266.46875 L 229.929688 270.441406 L 192.59375 248.875 L 188.621094 234.035156 C 188.621094 234.035156 188.039062 231.863281 185.867188 232.445312 C 183.691406 233.027344 184.277344 235.199219 184.277344 235.199219 L 187.085938 245.695312 L 178.15625 240.535156 C 178.15625 240.535156 176.207031 239.410156 175.082031 241.355469 C 173.960938 243.304688 175.90625 244.429688 175.90625 244.429688 L 184.835938 249.589844 L 174.347656 252.398438 C 174.347656 252.398438 172.171875 252.984375 172.757812 255.15625 C 173.339844 257.332031 175.511719 256.75 175.511719 256.75 L 190.347656 252.773438 L 227.683594 274.34375 L 231.65625 289.183594 C 231.65625 289.183594 232.238281 291.355469 234.410156 290.773438 C 236.582031 290.1875 236 288.019531 236 288.019531 L 233.1875 277.523438 L 242.121094 282.683594 C 242.121094 282.683594 244.070312 283.808594 245.195312 281.863281 C 246.320312 279.910156 244.371094 278.785156 244.371094 278.785156 L 235.441406 273.625 L 245.925781 270.816406 C 245.925781 270.8125 248.097656 270.230469 247.515625 268.058594 Z M 247.515625 268.058594 " fill-opacity="1" fill-rule="nonzero"/><path fill="#171539" d="M 245.925781 252.398438 L 235.4375 249.585938 L 244.371094 244.429688 C 244.371094 244.429688 246.320312 243.300781 245.195312 241.351562 C 244.070312 239.402344 242.121094 240.527344 242.121094 240.527344 L 233.191406 245.6875 L 236 235.195312 C 236 235.195312 236.582031 233.019531 234.410156 232.4375 C 232.238281 231.855469 231.65625 234.027344 231.65625 234.027344 L 227.683594 248.867188 L 190.34375 270.441406 L 175.515625 266.464844 C 175.515625 266.464844 173.34375 265.882812 172.761719 268.054688 C 172.175781 270.230469 174.351562 270.8125 174.351562 270.8125 L 184.835938 273.621094 L 175.90625 278.78125 C 175.90625 278.78125 173.960938 279.910156 175.085938 281.855469 C 176.210938 283.804688 178.15625 282.679688 178.15625 282.679688 L 187.085938 277.519531 L 184.277344 288.011719 C 184.277344 288.011719 183.695312 290.1875 185.867188 290.765625 C 188.039062 291.351562 188.625 289.179688 188.625 289.179688 L 192.597656 274.335938 L 229.9375 252.769531 L 244.769531 256.746094 C 244.769531 256.746094 246.941406 257.328125 247.523438 255.15625 C 248.097656 252.980469 245.925781 252.398438 245.925781 252.398438 Z M 245.925781 252.398438 " fill-opacity="1" fill-rule="nonzero"/><g clip-path="url(#b3a86f8ee3)"><path fill="#171539" d="M 156.621094 242.835938 L 156.621094 231.253906 L 159.496094 228.335938 C 159.496094 228.335938 159.917969 227.910156 159.496094 227.480469 C 159.074219 227.054688 158.652344 227.480469 158.652344 227.480469 L 156.621094 229.542969 L 156.621094 226.773438 C 156.621094 226.773438 156.621094 226.167969 156.027344 226.167969 C 155.433594 226.167969 155.433594 226.773438 155.433594 226.773438 L 155.433594 229.542969 L 153.402344 227.480469 C 153.402344 227.480469 152.980469 227.054688 152.558594 227.480469 C 152.136719 227.910156 152.558594 228.335938 152.558594 228.335938 L 155.433594 231.253906 L 155.433594 242.835938 L 152.558594 245.753906 C 152.558594 245.753906 152.136719 246.179688 152.558594 246.605469 C 152.980469 247.035156 153.402344 246.605469 153.402344 246.605469 L 155.433594 244.542969 L 155.433594 247.316406 C 155.433594 247.316406 155.433594 247.917969 156.027344 247.917969 C 156.621094 247.917969 156.621094 247.316406 156.621094 247.316406 L 156.621094 244.542969 L 158.652344 246.605469 C 158.652344 246.605469 159.074219 247.035156 159.496094 246.605469 C 159.917969 246.179688 159.496094 245.753906 159.496094 245.753906 Z M 156.621094 242.835938 " fill-opacity="1" fill-rule="nonzero"/></g><path fill="#171539" d="M 165.917969 238.777344 C 165.765625 238.191406 165.191406 238.347656 165.191406 238.347656 L 161.265625 239.417969 L 151.382812 233.625 L 150.332031 229.640625 C 150.332031 229.640625 150.179688 229.054688 149.605469 229.214844 C 149.027344 229.371094 149.183594 229.953125 149.183594 229.953125 L 149.925781 232.769531 L 147.5625 231.386719 C 147.5625 231.386719 147.046875 231.082031 146.75 231.605469 C 146.453125 232.128906 146.96875 232.429688 146.96875 232.429688 L 149.332031 233.816406 L 146.554688 234.570312 C 146.554688 234.570312 145.980469 234.726562 146.136719 235.3125 C 146.289062 235.894531 146.863281 235.738281 146.863281 235.738281 L 150.789062 234.671875 L 160.671875 240.464844 L 161.722656 244.449219 C 161.722656 244.449219 161.875 245.03125 162.449219 244.875 C 163.027344 244.71875 162.871094 244.136719 162.871094 244.136719 L 162.128906 241.316406 L 164.492188 242.703125 C 164.492188 242.703125 165.007812 243.003906 165.304688 242.480469 C 165.601562 241.957031 165.085938 241.65625 165.085938 241.65625 L 162.722656 240.269531 L 165.5 239.515625 C 165.5 239.515625 166.074219 239.359375 165.917969 238.777344 Z M 165.917969 238.777344 " fill-opacity="1" fill-rule="nonzero"/><path fill="#171539" d="M 165.5 234.570312 L 162.722656 233.816406 L 165.085938 232.429688 C 165.085938 232.429688 165.601562 232.128906 165.304688 231.605469 C 165.007812 231.082031 164.492188 231.382812 164.492188 231.382812 L 162.128906 232.769531 L 162.871094 229.953125 C 162.871094 229.953125 163.027344 229.367188 162.449219 229.210938 C 161.875 229.054688 161.722656 229.636719 161.722656 229.636719 L 160.671875 233.621094 L 150.789062 239.417969 L 146.863281 238.347656 C 146.863281 238.347656 146.289062 238.191406 146.136719 238.773438 C 145.980469 239.359375 146.554688 239.515625 146.554688 239.515625 L 149.332031 240.269531 L 146.96875 241.65625 C 146.96875 241.65625 146.453125 241.957031 146.75 242.480469 C 147.046875 243.003906 147.5625 242.703125 147.5625 242.703125 L 149.925781 241.316406 L 149.183594 244.132812 C 149.183594 244.132812 149.027344 244.71875 149.605469 244.875 C 150.179688 245.03125 150.332031 244.445312 150.332031 244.445312 L 151.386719 240.460938 L 161.265625 234.671875 L 165.191406 235.738281 C 165.191406 235.738281 165.765625 235.894531 165.921875 235.3125 C 166.074219 234.726562 165.5 234.570312 165.5 234.570312 Z M 165.5 234.570312 " fill-opacity="1" fill-rule="nonzero"/></svg>