<svg xmlns="http://www.w3.org/2000/svg" xmlns:xlink="http://www.w3.org/1999/xlink" width="500" zoomAndPan="magnify" viewBox="0 0 375 374.999991" height="500" preserveAspectRatio="xMidYMid meet" version="1.0"><defs><clipPath id="01ab8bd712"><path d="M 50 32.464844 L 345 32.464844 L 345 188 L 50 188 Z M 50 32.464844 " clip-rule="nonzero"/></clipPath></defs><g clip-path="url(#01ab8bd712)"><path fill="#e1dddb" d="M 345 152.085938 C 345 125.527344 322.5 104 294.75 104 C 294.507812 104 294.273438 104.011719 294.035156 104.015625 C 294.503906 101.007812 294.75 97.933594 294.75 94.800781 C 294.75 60.386719 265.597656 32.488281 229.640625 32.488281 C 199.679688 32.488281 174.460938 51.863281 166.875 78.230469 C 158.136719 71.683594 147.136719 67.769531 135.175781 67.769531 C 106.738281 67.769531 83.6875 89.828125 83.6875 117.042969 C 83.6875 120.328125 84.03125 123.535156 84.671875 126.640625 L 82.027344 126.640625 C 64.566406 126.640625 50.40625 140.1875 50.40625 156.902344 C 50.40625 173.613281 64.566406 187.164062 82.027344 187.164062 L 312.203125 187.164062 C 328.980469 187.164062 342.695312 174.660156 343.753906 158.859375 L 344.492188 158.859375 C 344.820312 156.648438 345 154.386719 345 152.085938 Z M 345 152.085938 " fill-opacity="1" fill-rule="nonzero"/></g><path fill="#c9974e" d="M 217.640625 203.378906 L 243.851562 203.378906 C 246.378906 203.378906 247.589844 206.480469 245.726562 208.1875 L 224.371094 227.71875 C 223.15625 228.832031 223.238281 230.773438 224.546875 231.777344 L 246.945312 248.988281 C 248.261719 250 248.335938 251.960938 247.09375 253.070312 L 204.433594 291.164062 C 202.167969 293.1875 198.707031 290.820312 199.78125 287.980469 L 211.789062 256.207031 C 212.199219 255.113281 211.847656 253.875 210.917969 253.164062 L 187.921875 235.585938 C 186.6875 234.644531 186.523438 232.851562 187.566406 231.699219 L 210.304688 206.628906 C 212.179688 204.558594 214.84375 203.378906 217.640625 203.378906 Z M 217.640625 203.378906 " fill-opacity="1" fill-rule="nonzero"/><path fill="#c9974e" d="M 156.1875 276.464844 L 174.59375 276.464844 C 177.121094 276.464844 178.332031 279.566406 176.464844 281.269531 L 161.101562 295.328125 C 159.882812 296.441406 159.96875 298.382812 161.277344 299.386719 L 177.996094 312.234375 C 179.316406 313.25 179.386719 315.210938 178.148438 316.316406 L 146.632812 344.457031 C 144.371094 346.480469 140.910156 344.113281 141.980469 341.273438 L 150.492188 318.746094 C 150.90625 317.652344 150.554688 316.414062 149.621094 315.703125 L 132.183594 302.375 C 130.949219 301.429688 130.785156 299.636719 131.828125 298.484375 L 148.851562 279.714844 C 150.726562 277.644531 153.390625 276.464844 156.1875 276.464844 Z M 156.1875 276.464844 " fill-opacity="1" fill-rule="nonzero"/><path fill="#171539" d="M 76.511719 238.886719 C 78.9375 227.953125 80.699219 218.203125 81.6875 212.390625 C 82.035156 210.335938 79.691406 208.914062 78.027344 210.171875 C 73.316406 213.722656 65.460938 219.78125 56.855469 226.972656 C 52.0625 230.980469 50.328125 235.324219 50.109375 239.285156 C 49.578125 248.949219 60.324219 255.46875 68.675781 250.539062 C 72.09375 248.523438 75.15625 244.988281 76.511719 238.886719 Z M 76.511719 238.886719 " fill-opacity="1" fill-rule="nonzero"/><path fill="#171539" d="M 113.339844 286.53125 C 115.765625 275.597656 117.527344 265.847656 118.515625 260.035156 C 118.863281 257.980469 116.519531 256.558594 114.855469 257.816406 C 110.144531 261.367188 102.289062 267.421875 93.683594 274.613281 C 88.886719 278.625 87.15625 282.96875 86.9375 286.929688 C 86.40625 296.59375 97.152344 303.113281 105.503906 298.183594 C 108.921875 296.167969 111.984375 292.632812 113.339844 286.53125 Z M 113.339844 286.53125 " fill-opacity="1" fill-rule="nonzero"/><path fill="#171539" d="M 56.835938 333.886719 C 59.265625 322.953125 61.027344 313.203125 62.015625 307.390625 C 62.363281 305.335938 60.019531 303.914062 58.355469 305.171875 C 53.644531 308.722656 45.789062 314.78125 37.183594 321.96875 C 32.386719 325.980469 30.65625 330.324219 30.4375 334.285156 C 29.90625 343.949219 40.652344 350.464844 49 345.539062 C 52.421875 343.523438 55.484375 339.984375 56.835938 333.886719 Z M 56.835938 333.886719 " fill-opacity="1" fill-rule="nonzero"/><path fill="#171539" d="M 311.867188 237.3125 C 314.292969 226.375 316.054688 216.625 317.042969 210.8125 C 317.390625 208.757812 315.050781 207.339844 313.382812 208.59375 C 308.671875 212.148438 300.816406 218.203125 292.214844 225.394531 C 287.417969 229.402344 285.683594 233.746094 285.46875 237.707031 C 284.933594 247.375 295.683594 253.890625 304.03125 248.964844 C 307.449219 246.945312 310.511719 243.410156 311.867188 237.3125 Z M 311.867188 237.3125 " fill-opacity="1" fill-rule="nonzero"/><path fill="#171539" d="M 339.789062 292.839844 C 342.214844 281.90625 343.976562 272.152344 344.964844 266.34375 C 345.3125 264.285156 342.972656 262.867188 341.304688 264.121094 C 336.59375 267.675781 328.738281 273.730469 320.136719 280.921875 C 315.335938 284.929688 313.605469 289.273438 313.390625 293.234375 C 312.855469 302.902344 323.601562 309.417969 331.953125 304.492188 C 335.371094 302.472656 338.433594 298.9375 339.789062 292.839844 Z M 339.789062 292.839844 " fill-opacity="1" fill-rule="nonzero"/><path fill="#171539" d="M 285.519531 323 C 287.949219 312.0625 289.710938 302.3125 290.695312 296.5 C 291.042969 294.445312 288.703125 293.027344 287.039062 294.28125 C 282.324219 297.835938 274.46875 303.890625 265.867188 311.082031 C 261.070312 315.089844 259.339844 319.433594 259.121094 323.394531 C 258.589844 333.0625 269.335938 339.578125 277.683594 334.652344 C 281.101562 332.632812 284.167969 329.097656 285.519531 323 Z M 285.519531 323 " fill-opacity="1" fill-rule="nonzero"/><path fill="#e1dddb" d="M 236.027344 68.398438 L 117.058594 187.164062 L 312.203125 187.164062 C 328.980469 187.164062 342.695312 174.660156 343.753906 158.859375 L 344.492188 158.859375 C 344.820312 156.648438 345 154.386719 345 152.085938 C 345 125.527344 322.503906 104 294.75 104 C 294.511719 104 294.277344 104.011719 294.039062 104.015625 C 294.503906 101.007812 294.75 97.933594 294.75 94.800781 C 291.128906 78.097656 281.921875 68.671875 272.628906 63.351562 C 260.738281 56.546875 245.71875 58.722656 236.027344 68.398438 Z M 236.027344 68.398438 " fill-opacity="1" fill-rule="nonzero"/></svg>